<svg height="24" viewBox="0 0 24 24" width="24" xmlns="http://www.w3.org/2000/svg"><path d="m3 3v18h5.9203325v-3.500001h1.9734385v3.500001h5.920339v-18zm1.9734464 1.9999999h1.9734463v2h-1.9734463zm3.9468861 0h1.9734385v2h-1.9734385zm3.9468845 0h1.973446v2h-1.973446zm-7.8937706 3.9999999h1.9734463v1.9999992h-1.9734463zm3.9468861 0h1.9734385v1.9999992h-1.9734385zm3.9468845 0h1.973446v1.9999992h-1.973446zm-7.8937706 4.0000002h1.9734463v2h-1.9734463zm3.9468861 0h1.9734385v2h-1.9734385zm3.9468845 0h1.973446v2h-1.973446zm-7.8937706 4h1.9734463v2h-1.9734463zm7.8937706 0h1.973446v2h-1.973446z" fill="#6ab8ac" stroke-width=".993336"/><path d="m20.565042 12.973969a.94211361.80446097 0 0 1 .942114.804462.94211361.80446097 0 0 1 -.942114.80446.94211361.80446097 0 0 1 -.942114-.80446.94211361.80446097 0 0 1 .942114-.804462m-.706585 2.011152h1.413171a.94211361.80446097 0 0 1 .942113.804461v2.212268h-.706585v3.016729h-1.884228v-3.016729h-.706585v-2.212268a.94211361.80446097 0 0 1 .942114-.804461z" stroke-width=".435286"/><path d="m17.365207 6.4805816c-.294174.2798912-.579683.5515482-.588338.8232072-.02603.263426.268203.535085.545075.790279.415298.411605.821925.782048.804626 1.18542-.0173.403372-.458558.8232072-.899797 1.2348142l-3.57326 3.408092-1.228572-1.168953 3.677077-3.4904182-.830597-.790279-1.228576 1.160723-3.244477-3.0870287 3.322355-3.152886c.337425-.3210495.899792-.3210495 1.21993 0l2.024554 1.9263057c.337415.304588.337415.8396722 0 1.1607238m-15.3226206 8.4049654 8.2712586-7.8781122 3.2445 3.0870282-8.2712813 7.878121h-3.2444773z" fill="#333642" stroke-width=".843945"/></svg>