<svg height="24" viewBox="0 0 24 24" width="24" xmlns="http://www.w3.org/2000/svg"><path d="m6 2c-1.11 0-2 .89-2 2v16c0 1.104569.8954305 2 2 2h6.68c-.446302-.937211-.678577-1.96195-.68-3 0-3.865993 3.134007-7 7-7 .334818.0027.669009.02945 1 .08v-4.08l-6-6zm7 1.5 5.5 5.5h-5.5z" fill="#3ca9ff"/><path d="m18.869889 21.772901 3.089999 1.96316-.819999-3.699996 2.729999-2.489475-3.595001-.326319-1.404999-3.484213-1.405 3.484213-3.595.326319 2.725001 2.489477-.815002 3.699994z" fill="#c5b358" stroke-width=".512989"/></svg>