<svg height="24" viewBox="0 0 24 24" width="24" xmlns="http://www.w3.org/2000/svg"><path d="m6.15 7.5a1.35 1.35 0 0 1 -1.35-1.35 1.35 1.35 0 0 1 1.35-1.35 1.35 1.35 0 0 1 1.35 1.35 1.35 1.35 0 0 1 -1.35 1.35m14.319 4.122-8.1-8.1c-.324-.324-.774-.522-1.269-.522h-6.3c-.999 0-1.8.801-1.8 1.8v6.3c0 .495.198.945.531 1.269l8.091 8.1c.333.324.783.531 1.278.531s.945-.207 1.269-.531l6.3-6.3c.333-.324.531-.774.531-1.269 0-.504-.207-.954-.531-1.278z" fill="#747ba4" fill-opacity=".941176" stroke-width=".9"/></svg>