<svg height="24" viewBox="0 0 24 24" width="24" xmlns="http://www.w3.org/2000/svg"><path d="m9 4 2 2h8c1.104569 0 2 .8954305 2 2v3.81c-1.17-1.12-2.75-1.81-4.5-1.81-3.589851 0-6.5 2.910149-6.5 6.5 0 1.29.37 2.5 1 3.5h-8c-1.11 0-2-.9-2-2v-12c0-1.11.89-2 2-2z" fill="#4a8dac"/><path d="m9 4 2 2h8c1.104569 0 2 .8954305 2 2v3.81c-1.17-1.12-2.75-1.81-4.5-1.81-3.589851 0-6.5 2.910149-6.5 6.5 0 1.29.37 2.5 1 3.5h-8c-1.11 0-2-.9-2-2v-12c0-1.11.89-2 2-2z" fill="#ffd767"/><path d="m14.459108 22.416751 7.5-4.786657-7.5-4.78667z" fill="#4b6eaf" stroke-width="1.153096"/></svg>