<svg height="24" viewBox="0 0 24 24" width="24" xmlns="http://www.w3.org/2000/svg"><path d="m16.291706 12.15241c-.143 0-.264.099-.286.231l-.209 1.452c-.33.143-.649.319-.935.517l-1.364-.55c-.121 0-.264 0-.341.143l-1.1 1.903c-.066.121-.044.264.066.352l1.166.902c-.022.187-.033.363-.033.55s.011.363.033.55l-1.166.902c-.099.088-.132.231-.066.352l1.1 1.903c.066.143.209.143.341.143l1.364-.55c.286.198.594.385.935.517l.209 1.452c.022.132.132.231.286.231h2.2c.121 0 .242-.099.264-.231l.209-1.452c.33-.143.627-.319.924-.517l1.353.55c.143 0 .286 0 .363-.143l1.1-1.903c.066-.121.033-.264-.066-.352l-1.177-.902c.022-.187.044-.363.044-.55s-.011-.363-.044-.55l1.166-.902c.099-.088.132-.231.066-.352l-1.1-1.903c-.066-.143-.209-.143-.352-.143l-1.353.55c-.297-.198-.594-.385-.935-.517l-.209-1.452c-.011-.132-.132-.231-.253-.231zm1.1 3.85c.913 0 1.65.737 1.65 1.65s-.737 1.65-1.65 1.65c-.924 0-1.65-.737-1.65-1.65s.737-1.65 1.65-1.65z" fill="#4a8dac" stroke-width="1.1"/><path d="m9.0000004 3.9999996 1.9999996 2h8c1.104569 0 2 .8954305 2 2v3.8100004c-1.17-1.12-2.75-1.8100004-4.5-1.8100004-3.589851 0-6.5 2.9101494-6.5 6.5000004 0 1.29.37 2.5 1 3.5h-8c-1.11 0-2-.9-2-2v-12.0000004c0-1.11.89-2 2-2z" fill="#ffd767"/><path d="m7.6223047 11.478811v.799997h-5.6v-.799997s0-1.5999953 2.8-1.5999953 2.8 1.5999953 2.8 1.5999953m-1.4-3.7999843a1.4 1.3999952 0 1 0 -1.4 1.399992 1.4 1.3999952 0 0 0 1.4-1.399992m1.376 2.199989a2.128 2.1279927 0 0 1 .824 1.5999953v.799997h1.6000003v-.799997s0-1.451995-2.4240003-1.5999953m-.376-3.599982a1.356 1.3559954 0 0 0 -.772.235999 2 1.9999931 0 0 1 0 2.327987 1.356 1.3559954 0 0 0 .772.235999 1.4 1.3999952 0 0 0 0-2.799985z" fill="#4a8dac" stroke-width=".399999"/></svg>