<svg height="24" viewBox="0 0 24 24" width="24" xmlns="http://www.w3.org/2000/svg"><path d="m3.1999993 3c-1.2209996 0-2.1999993.9789997-2.1999993 2.1999993v13.2000017c0 1.215025.9849733 2.199999 2.1999993 2.199999h8.3919327l2.820967-15.4000007h-2.412902l-2.1999995-2.1999993z" fill="#ffd767" stroke-width="1.1"/><path d="m10.946667 11.518334c.361667-.35.851667-.56 1.353332-.56.501667.01167.991667.21 1.353334.571667.35.35.56.84.56 1.341667 0 .513333-.21.991666-.56 1.353333-.361667.361667-.851667.56-1.353334.56-.501665 0-.991665-.21-1.353332-.56-.35-.361667-.56-.84-.56-1.353333 0-.501667.21-.991667.56-1.353334m-.898333 3.581667c.595.618333 1.411666.956667 2.251665.956667.84 0 1.656667-.338334 2.251667-.956667.595-.583333.933333-1.388333.933333-2.228333s-.338333-1.656667-.933333-2.251667-1.411667-.9333337-2.251667-.9333337c-.839999 0-1.656665.3383337-2.251665.9333337-.5949999.595-.9333339 1.411667-.9333339 2.251667s.338334 1.645.9333339 2.228333m-4.748334-2.228333c1.0966664-2.788334 3.8150001-4.771668 6.999999-4.771668 3.185 0 5.903332 1.983334 6.999999 4.771668-1.096667 2.811666-3.814999 4.771666-6.999999 4.771666-3.1849989 0-5.9033326-1.96-6.999999-4.771666z" fill="#00ace6" stroke-width="1.16667"/></svg>