<svg height="24" viewBox="0 0 24 24" width="24" xmlns="http://www.w3.org/2000/svg"><path d="m22.083333 11.1h-4.583333a.91666667.89999995 0 0 0 -.916667.9v8.099999a.91666667.89999995 0 0 0 .916667.9h4.583333a.91666667.89999995 0 0 0 .916667-.9v-8.099999a.91666667.89999995 0 0 0 -.916667-.9m0 8.099999h-4.583333v-6.3h4.583333zm-2.75-16.199999h-16.4999997c-1.0175 0-1.8333333.801-1.8333333 1.8v10.799999a1.8333333 1.7999999 0 0 0 1.8333333 1.8h6.4166667v1.8h-1.8333333v1.800001h7.3333333v-1.800001h-1.833333v-1.8h1.833333v-1.8h-11.9166667v-10.799999h16.4999997v4.4999997h1.833334v-4.4999997c0-.999-.825-1.8-1.833334-1.8z" fill="#e7e7e7" stroke-width=".908295"/></svg>