<svg height="24" viewBox="0 0 24 24" width="24" xmlns="http://www.w3.org/2000/svg"><path d="m2.8141247 3v18h5.9999934v-3.5h1.9999919v3.5h6v-18zm2 2h2v2h-2zm3.9999934 0h1.9999919v2h-1.9999919zm3.9999919 0h2v2h-2zm-7.9999853 4h2v2h-2zm3.9999934 0h1.9999919v2h-1.9999919zm3.9999919 0h2v2h-2zm-7.9999853 4h2v2h-2zm3.9999934 0h1.9999919v2h-1.9999919zm3.9999919 0h2v2h-2zm-7.9999853 4h2v2h-2zm7.9999853 0h2v2h-2z" fill="#6ab8ac"/><path d="m20.275076 12.260215a1.0058417.88475836 0 0 1 1.005842.884759 1.0058417.88475836 0 0 1 -1.005842.884758 1.0058417.88475836 0 0 1 -1.005842-.884758 1.0058417.88475836 0 0 1 1.005842-.884759m-.754381 2.211896h1.508763a1.0058417.88475836 0 0 1 1.005841.884758v2.433086h-.754381v3.317844h-2.011684v-3.317844h-.754381v-2.433086a1.0058417.88475836 0 0 1 1.005842-.884758z" fill="#1d465e" stroke-width=".47168"/></svg>