<svg height="24" viewBox="0 0 24 24" width="24" xmlns="http://www.w3.org/2000/svg"><path d="m9.8000016 3h-6.6000016c-1.221 0-2.2.979-2.2 2.2v13.200002a2.2 2.2 0 0 0 2.2 2.199999h17.600002a2.2 2.2 0 0 0 2.2-2.199999v-11.000002c0-1.221-.99-2.2-2.2-2.2h-8.8z" fill="#ffd767" stroke-width="1.1"/><path d="m10.946672 11.518334c.361667-.35.851667-.56 1.353332-.56.501667.01167.991667.21 1.353333.571666.35.35.56.84.56 1.341667 0 .513333-.21.991666-.56 1.353333-.361666.361667-.851666.56-1.353333.56-.501665 0-.991665-.21-1.353332-.56-.35-.361667-.56-.84-.56-1.353333 0-.501667.21-.991667.56-1.353333m-.898333 3.581666c.595.618333 1.411667.956666 2.251665.956666.84 0 1.656667-.338333 2.251667-.956666.595-.583333.933333-1.388333.933333-2.228333s-.338333-1.656667-.933333-2.251666c-.595-.595-1.411667-.9333347-2.251667-.9333347-.839998 0-1.656665.3383347-2.251665.9333347-.5950023.594999-.933337 1.411666-.933337 2.251666s.3383347 1.645.933337 2.228333m-4.748339-2.228333c1.0966665-2.788333 3.815002-4.771667 7.000004-4.771667 3.185 0 5.903332 1.983334 6.999998 4.771667-1.096666 2.811666-3.814998 4.771666-6.999998 4.771666-3.185002 0-5.9033375-1.96-7.000004-4.771666z" fill="#4ba77f" stroke-width="1.16667"/></svg>