<svg height="24" viewBox="0 0 24 24" width="24" xmlns="http://www.w3.org/2000/svg"><path d="m17.504104 11.436809v1.732017c2.550844 0 4.618712 2.067867 4.618712 4.618711 0 .946836-.28867 1.824391-.773635 2.551839l-1.258599-1.258599c.196295-.392591.300216-.831369.300216-1.29324 0-1.594277-1.292418-2.886695-2.886694-2.886695v1.732017l-2.598026-2.598025z" fill="#286da8" stroke-width="1.154678"/><path d="m17.611261 23.936809v-1.732017c-2.550843 0-4.618711-2.067867-4.618711-4.618711 0-.946836.28867-1.824391.773634-2.551839l1.258599 1.258599c-.196295.392591-.300216.831369-.300216 1.29324 0 1.594277 1.292417 2.886695 2.886694 2.886695v-1.732017l2.598025 2.598025z" fill="#00c4ba" stroke-width="1.154678"/><path d="m9 4 2 2h8c1.104569 0 2 .8954305 2 2v3.81c-1.17-1.12-2.75-1.81-4.5-1.81-3.589851 0-6.5 2.910149-6.5 6.5 0 1.29.37 2.5 1 3.5h-8c-1.11 0-2-.9-2-2v-12c0-1.11.89-2 2-2z" fill="#ffd767"/></svg>