<svg height="24" viewBox="0 0 24 24" width="24" xmlns="http://www.w3.org/2000/svg"><path d="m13 9v-5.5l5.5 5.5m-12.5-7c-1.11 0-2 .89-2 2v16a2 2 0 0 0 2 2h12a2 2 0 0 0 2-2v-12l-6-6z" fill="#fa0f00"/><g fill="#fff"><path d="m6.0494539 13.068766v5.5h1.1000018v-2.200003h1.1000017a1.1000018 1.1000018 0 0 0 1.1000017-1.100002v-1.100002a1.1000018 1.1000018 0 0 0 -1.1000017-1.099993zm1.1000018 1.099993h1.1000017v1.100002h-1.1000017z" stroke-width=".550001"/><g stroke-width=".55"><path d="m10.647969 13.068766v5.5h2.200016a1.1000004 1.1000004 0 0 0 1.100005-1.100001v-3.300001a1.1000004 1.1000004 0 0 0 -1.100005-1.099998zm1.100008 1.099998h1.100008v3.300001h-1.100008z"/><path d="m15.242767 13.068766v5.5h1.100001v-2.200001h1.65v-1.100001h-1.65v-1.1h2.200001v-1.099998z"/></g></g></svg>