<svg height="24" viewBox="0 0 24 24" width="24" xmlns="http://www.w3.org/2000/svg"><path d="m17.819669 12.927058c-.677327 0-1.16993.400329-1.16993.950782 0 .500412.492603.950784 1.16993.950784.615751 0 1.108353-.450372 1.108353-.950784 0-.550453-.492602-.950782-1.108353-.950782zm-.307876 3.002477c-.923629.05003-3.386638 1.651356-3.386638 1.651356-.184728.100089-.12315.100089 0 .250205.12315.200165.12315.200165.246302.10009.12315-.05003.431026-.200164.800478-.40033 1.66253-.850696.307876 1.100905-.431026 4.40362-.246301 1.651357 1.539381.800658 2.031982.550453.431025-.250205 1.724107-.900742 1.847255-1.000823.123163-.100089 0-.150125-.12315-.300246-.06157-.100089-.184727-.05003-.184727-.05003-.492603.250208-1.41623.850701-1.539381.500412-.12315-.400329.800479-2.852345 1.293082-4.503701.123162-.400329.36945-1.30107-.554177-1.200988z" fill="#1d465e"/><path d="m9 4 2 2h8c1.104569 0 2 .8954305 2 2v3.81c-1.17-1.12-2.75-1.81-4.5-1.81-3.589851 0-6.5 2.910149-6.5 6.5 0 1.29.37 2.5 1 3.5h-8c-1.11 0-2-.9-2-2v-12c0-1.11.89-2 2-2z" fill="#ffd767"/></svg>