<svg height="24" viewBox="0 0 24 24" width="24" xmlns="http://www.w3.org/2000/svg"><path d="m3.232258.967742h17.600002c1.215026 0 2.2 1.2312172 2.2 2.7500007v16.4999963c0 1.518783-.984974 2.750001-2.2 2.750001h-17.600002c-1.2150264 0-2.2-1.231218-2.2-2.750001v-16.4999963c0-1.5262504.99-2.7500007 2.2-2.7500007m9.009002 4.8125012c-.979 0-1.76.2475001-2.3540003.7425002-.6050012.4950001-.9130017 1.3200008-.8580017 2.2687508h2.167002c0-.385.11-.67375.286-.86625.22-.1925.462-.2887506.759-.2887506.341 0 .638.1100006.836.3575006.198.23375.297.53625.297.94875 0 .385-.088.7287489-.242 1.0174989-.187.3024999-.418.5499979-.704.7424979-.572.439998-.946.824998-1.177 1.154996-.209.330001-.319.797501-.319 1.485001h2.2c0-.385.055-.6875.154-.935.099-.23375.286-.440001.572-.646251.506-.288748.924-.673748 1.243-1.168746.319-.508748.484-1.0449968.484-1.6499968 0-.9625-.297-1.7325007-.891-2.3100008-.594-.5637501-1.419-.8525002-2.453-.8525002m-1.309 8.9374948v2.750001h2.2v-2.750001z" fill="#00858a" stroke-width="1.229833"/></svg>