<svg height="24" viewBox="-690 -658 1415 1415" width="24" xmlns="http://www.w3.org/2000/svg"><path d="m-558.48723-104.76164c1.67016 3.34031 5.01051 5.010467 7.51576 7.515697 1.67018 2.505232 3.34034 5.845541 5.01051 9.18585 1.67017 3.340308 5.01051 5.845539 5.01051 9.185848 0 2.505231-4.17543 4.175385-5.01051 6.680617 0 1.670154 0 3.340309.83508 5.84554l2.50526 2.505232c3.34034 0 4.17543-3.340308 6.68068-5.010463h4.17543c1.67017.835077 1.67017 4.175386 3.34034 4.175386.83508.835077 2.50526-2.505231 4.17542-1.670155 1.67017 0 3.34035.835078 4.17543 2.505232 2.50525 3.340309 1.67017 7.515694 4.17543 10.856003 1.67017 2.505231 5.0105 3.340308 8.35085 4.175385 2.50525 0 5.84559-.835077 7.51576-2.505231 2.50526-2.505231 2.50526-5.84554 4.17543-7.515694s4.17543-.835077 5.84559-1.670154c1.67017-.835078 3.34035-2.505232 5.8456-3.340309.83508-.835077 3.34034-3.340308 4.17543-2.505232 2.50525 3.340309 1.67016 7.515695 1.67016 10.856004.83509 10.020925-2.50525 20.876928.83509 30.062777.83509 3.340309 5.84559 2.505232 9.18594 1.670154 3.34034-.835076 5.84559-4.175386 9.18594-4.175386 4.17542-.835078 8.35085 0 11.69119 0 5.01051.835077 10.85611.835077 15.86662.835077 5.84559.835078 11.69119 1.670155 17.53679 0 2.50525 0 5.01051-3.340309 5.84559-5.84554 1.67017-1.670154 0-5.010463 1.67017-6.680617.83508-.835077 4.17543-.835077 5.84559-.835077 1.67017 0 2.50526 2.505231 3.34035 1.670154 3.34033-.835077 5.84559-3.340308 7.51576-5.010463 2.50525-2.505231 3.34035-6.680617 5.8456-8.350771 1.67016-.835077 3.34034 2.505231 4.17543 1.670154 2.50525-1.670154 3.34033-5.010462 5.01051-7.515694 2.50525-2.505231 5.84559-5.010463 8.35084-5.84554 4.17543-1.670154 9.18594-2.505232 13.36137-3.340308 2.50525 0 4.17542-.835078 6.68068-.835078 2.50525 0 5.01051.835078 7.51576.835078 1.67017 0 3.34035-1.670155 5.01052-1.670155.83508-.835078 2.50525-2.505233 3.34034-.835078 2.50525 2.505233 3.34033 7.515696 3.34033 10.856004 0 3.340309-3.34033 5.010463-3.34033 7.515694-.83509 3.340309 0 6.680617.83508 9.185849.83509 2.505231 3.34034 3.340308 4.17542 5.845539.8351 2.505232.8351 5.010463 0 7.515694-.83508 1.670155-4.17542.835078-4.17542 2.505233 0 3.340309 1.67017 5.84554 2.50525 8.350772 1.67017 3.340308 1.67017 6.680612 4.17543 10.0209217 2.50525 4.17539 5.8456 8.35077997 10.02103 10.85601 3.34033 2.50523 7.51576 2.50523 10.8561 4.17539 1.67017 1.67015.83509 5.8455303 3.34034 7.5156803 2.50526 1.67016 5.84559 1.67016 8.35086.83509 3.34033 0 5.84559-.83509 8.35084-1.67016.83509 0 1.67017-1.67015 3.34035-1.67015 3.34033.83507 7.51576 3.34031 10.8561 5.01046 2.50525 1.67015 3.34034 5.01046 5.8456 6.68062 2.50525.83507 5.01051-.83509 6.68068.83507 3.34034.83508 5.01051 5.01047 8.35084 5.84554 2.50527 1.67016 5.8456 2.50524 8.35086 2.50524 1.67017.83507 4.17543-.83508 5.8456.83507 3.34034 2.50524 5.01051 7.5157 9.18594 10.02092 2.50525 1.67016 6.68068 2.50524 10.8561 1.67016 1.67017-.83507 1.67017-5.01046 4.17542-5.01046 3.34035-.83508 5.8456 1.67015 9.18594 2.50523 2.50525 1.67016 5.01051 3.34031 7.51577 5.01046 3.34034 1.67016 8.35085 2.50523 10.02102 5.84554 1.67017 2.50523-1.67017 6.68061-.83508 10.02093.83508 4.17539 4.17542 7.51569 5.84559 11.69108.83508 2.50523 0 6.68062 0 10.02093 0 .83508.83508 1.67015 0 2.50522-2.50526.83508-5.01051-.83507-6.68068 0-.83508.83508 0 3.34032.83509 4.17539.83508 1.67016 3.34033 2.50523 4.17542 5.01046 1.67017 3.34031 2.50525 7.5157 2.50525 11.69108.83509 3.34031 0 6.68062.83509 9.18585.83508 3.34031 3.34034 6.68062 5.84559 7.5157 6.68068 1.67015 14.19646 0 21.71222 0 6.68068.83507 13.36136.83507 20.04205.83507 1.67016.83508 5.84559-1.67015 5.84559.83508.83509 2.50523-4.17543 4.17539-5.01051 7.51569 0 2.50524 2.50525 4.17539 3.34033 5.84555 1.67018 3.34031 1.67018 7.5157 3.34035 10.02092 1.67017 2.50524 4.17543 3.34031 6.68068 5.01046 2.50526 2.50524 4.17543 5.01047 6.68068 7.5157 2.50526 2.50523 5.01051 5.84555 6.68069 9.18585 1.670162 3.34031 1.670162 6.68061 1.670162 10.856 0 3.34031-.83508 6.68062-2.505262 10.02093-.83508 4.17539-3.34033 8.35077-5.0105 12.52616-.83509 5.01046-2.50526 9.18585-4.17543 13.36123-.83508 2.50523-3.34034 5.84554-2.50526 8.35077.83509 2.50522 4.17543 2.50522 5.8456 3.34032.83509 1.67014 1.67017 3.34029.83509 4.17537-.83509 1.67016-3.34034 0-5.01051 1.67016-1.67018 1.67015-2.50526 5.01046-1.67018 7.51569 0 3.34032 2.50526 5.84554 3.34035 9.18585.83508 1.67016 1.67016 3.34031 2.50525 5.84555.83509 1.67015 2.50526 3.34029 2.50526 5.84554.83508 3.3403.83508 6.68061 0 10.856 0 1.67015-.83509 3.3403-1.67017 5.84554 0 1.67015.83508 4.17538.83508 5.84553 0 2.50523-1.67017 5.01048-1.67017 7.5157 0 2.50523 0 5.84554 2.50526 7.51569 2.50525.83508 5.010512-2.50523 7.515762-2.50523 2.50526 0 5.8456.83508 9.18594.83508 2.50525.83508 5.8456 0 8.35085.83508 2.50526 0 4.17543 1.67015 5.84559 1.67015 1.67018.83508 4.17543 1.67016 5.8456 1.67016 1.67018-.83508 1.67018-5.84555 4.17543-5.01047 2.50526 0 2.50526 4.17539 5.01051 5.84554 3.34034 1.67015 8.35085 0 11.69119 1.67015 2.50526 2.50524 4.17543 7.5157 5.01051 10.85601 2.50525 6.68061 2.50525 12.52615 4.17543 19.20677.83508 3.34031.83508 8.35078 4.17542 10.85601 1.67017 1.67016 5.8456 1.67016 9.18594 2.50523 4.17542 0 8.35085-1.67016 11.69119-.83507 3.3403404.83507 8.3508504 2.50522 9.1859404 5.84553 1.67017 4.17539-3.34034 8.35077-3.34034 12.52616 0 3.34031 2.50525 5.84553 1.67017 9.18585 0 2.50523-2.50526 5.01046-2.50526 8.35076-.83508 1.67017 2.50526 2.50524 1.67017 4.17539-.83508 1.67016-3.34034.83508-4.17542 2.50523-.8350904 1.67016-.8350904 4.17539 0 6.68062 0 2.50523 0 5.01047 2.50525 5.84555 3.34034.83507 8.35085-3.34032 11.6911901-1.67017 4.17543 2.50524 5.8456005 8.35078 7.5157705 12.52617 1.67017 2.50523 2.50526 5.84554 2.50526 8.35077-.83509 1.67015-3.34035 2.50523-3.34035 4.17539-.83508 2.50522.83509 5.01046.83509 8.35077 0 2.50523-.83509 5.01046-1.67017 7.51569-1.6701705 3.3403-2.5052605 5.84554-5.0105105 8.35077-1.67017 1.67015-3.3403401 2.50524-5.84560007 3.34031-2.50525003.83507-5.84559003 0-9.18593003.83507-3.3403404 1.67016-5.8456004 5.01048-8.3508604 6.68062-2.50525 1.67015-4.17542 4.17539-6.68068 5.84554-3.34034 2.50524-7.51576 4.17539-11.69119 6.68062-1.67016 1.67015-2.50526 4.17539-5.01051 6.68062-1.67017 2.50523-4.17543 5.01046-5.84559 7.51569-1.67017 1.67016-2.50526 3.3403-4.17543 5.01047-2.50525 2.50522-5.01051 3.3403-7.51577 5.01046-1.67016 2.50522-2.50526 5.84554-4.17542 7.5157-1.67017 2.50522-4.17543 3.34031-5.8456 5.84553-1.67017 2.50523-1.67017 6.68062-4.17543 9.18585-2.50525 2.50523-6.68068 1.67016-8.35084 4.17538-2.50526 1.67017-2.50526 5.01047-3.34035 7.5157-.83508 1.67016-2.50525 4.17538-.83508 5.01046 1.67017 1.67016 4.17543-1.67015 5.84559-.83508 1.67017 0 2.50526 2.50524 3.34035 2.50524 1.67017 0 2.50525-1.67016 3.34033-2.50524.83509-.83507.83509-2.50522 1.67018-3.3403 1.67017-.83508 4.17542-1.67015 5.8456-1.67015 1.67016 0 1.67016 2.50523 3.34033 3.3403.83508.83508 2.50526.83508 3.34034 1.67015 1.67017 1.67017.83509 4.17539 2.50526 5.84555 1.67017 1.67015 5.01051 1.67015 5.84559 2.50523 1.67018 1.67015 1.67018 4.17539 2.50526 5.84554.83509 2.50522 1.67017 5.01046 2.50525 5.84554.83509.83507 2.50526.83507 4.17543 0 .83508 0 2.50525-.83508 4.17543-1.67015.83508-.83508 1.67017-.83508 1.67017-1.67017.83508-.83507 0-2.50522 0-3.3403.83508-.83507 1.67017-.83507 2.50525-.83507 1.67017 0 5.01051 0 5.01051 1.67015.83509 1.67015-2.50525 3.34031-3.34034 5.01046 0 1.67015.83509 3.34031 1.67017 4.17539 2.50526 3.34031 5.8456 6.68061 10.02102 8.35077 2.50526 1.67015 6.68069 1.67015 9.18594 3.34031 2.5052604 1.67015 5.0105104 4.17538 6.6806804 5.84554 1.67017 2.50523 2.50526 5.01046 5.01051 6.68062 2.5052601 2.50522 6.6806801 2.50522 9.1859406 5.84553 3.34034 2.50524 3.34034 7.5157 5.8456 10.85601 6.680676 9.18585 15.866613 4.17539 9.185932 15.03139 0 .83508-1.67017 1.67015-2.505256 2.50523-1.67017.83507-2.505255.83507-3.340341 1.67015-.835084 1.67016-1.67017 2.50524-1.67017 4.17538 0 1.67016-.835085 4.17539 0 6.68062 0 1.67016 1.67017 3.34032 2.505256 4.17539 1.67017.83507 2.505255.83507 4.175425 0 .835086 0 1.670171-1.67015 2.505256-2.50523 2.505255-.83508 5.010511-1.67016 6.680681-2.50523 2.505255-1.67016 5.845596-3.34031 7.515766-5.84555 1.67017-1.67014 1.67017-4.17538 1.67017-6.68061.835085-1.67015.835085-3.34031.835085-5.01046.835086-1.67015 1.670171-3.34031 1.670171-5.01047 1.67017-3.3403 4.175425-6.68061 4.175425-10.02092.835086-1.67015-1.67017-3.34031-1.67017-5.84555 0-1.67015 1.67017-2.50522 1.67017-3.34029.835086-2.50524.835086-5.01047 2.505256-7.51571 1.67017-3.3403 5.010511-7.51569 7.515766-10.856 1.67017-1.67015 4.175426-1.67015 5.010511-2.50522 1.670171-.83509 2.505255-1.67016 3.340341-3.34032.835084-1.67016 0-4.17538.835084-6.68062.835086-2.50522 3.340341-4.17539 4.175426-6.68061.835085-1.67015 2.505256-2.50523 2.505256-5.01047 0-.83507-1.670171-1.67015-1.670171-2.50522-1.67017-1.67017-2.505255-3.34031-3.34034-5.84555 0-.83508-.835085-1.67015 0-2.50523 2.505255 0 5.010511 0 6.680681 1.67015 2.505255 2.50524 1.67017 5.84555 3.34034 8.35078 1.670171 1.67015 3.340341 2.50523 4.175426 2.50523 1.67017 0 .835085-1.67016.835085-2.50523.835085-.83508 0-3.34032.835085-2.50523 1.67017 0 1.67017 2.50523 3.340341 3.3403.835085 0 1.67017-2.50522 2.505256-1.67015.835084.83508.835084 2.50523 0 4.17539-.835086.83508-4.175427 0-5.010511 1.67015-.835086.83508.835084 3.3403 0 5.01047-.835086 1.67015-2.505256 2.50522-4.175427 5.01046-.835084.83508 0 2.50522-1.67017 3.34031-2.505255 1.67015-6.680681 0-8.350851 2.50523s1.67017 6.68062.835085 9.18584c-.835085 1.67017-4.175425.83508-5.845595 1.67017-1.67017.83507-2.505256 2.50522-3.340341 3.3403-2.505256 2.50523-6.680681 4.17539-9.185937 6.68061-.835085 1.67017-.835085 4.17539 0 5.84555 1.670171 1.67015 5.010511 2.50523 6.680681.83508 1.670171 0 1.670171-3.34032 3.340341-5.01046 1.67017-1.67017 4.175426-3.34032 5.845596-5.01047 3.34034-1.67016 5.845596-3.34031 8.350851-5.84554 2.505256-1.67016 3.34034-4.17539 5.010511-5.84554 2.505256-2.50524 5.010511-2.50524 6.680681-4.17538 2.505256-3.34032 4.175426-6.68062 5.845596-10.85601 1.670171-1.67015 3.340344-4.17539 3.340344-6.68062 1.67017-3.34031 1.67017-6.68061 2.50525-10.02092 0-.83508-.83508-2.50524 0-3.34032.83509-1.67015 3.34034-1.67015 4.17543-3.3403.83508-.83508.83508-2.50523 1.67017-3.34031 1.67017-2.50523 4.17542-2.50523 5.01051-5.01047.83508-1.67015-1.67017-4.17538-1.67017-5.84554 0-.83507 0-2.50523.83508-2.50523 1.67017 0 3.34034 1.67016 5.8456 1.67016 1.67017-.83507 2.50525-3.3403 3.34034-4.17539 1.67017-2.50523 3.34034-4.17538 5.01051-5.84554 3.34034-1.67015 6.68068-1.67015 10.02102-3.34031 1.67017-1.67015 3.34034-4.17539 5.01051-6.68061.83509-1.67016 2.50526-3.34031 3.34035-5.01046.83508-3.34031 0-6.68062.83508-9.18586.83509-4.17539 3.34034-7.51568 3.34034-11.69107.83509-2.50523-1.67017-3.34031-1.67017-5.84555.83508-2.50522 4.17543-5.01046 4.17543-8.35077 0-1.67015-2.50526-3.34031-2.50526-5.01045-.83509-3.34032-.83509-6.68063-.83509-10.02093 0-3.34031 0-5.84554.83509-9.18586 0-4.17539.83509-7.51568 2.50526-11.69107.83508-2.50523 5.01051-3.34031 5.01051-6.68062 0-1.67015-3.34035-2.50524-5.01051-4.17539v-2.50523c.83508-.83507 1.67016-1.67015 2.50525-2.50523 3.34034 0 6.68068 5.84554 10.02102 5.01046 5.01051-.83507 4.17543-8.35076 6.68068-11.69108 3.34035-3.34031 6.68068-5.01046 10.85611-7.51569 4.17543-3.34031 9.18594-5.84554 14.19645-9.18585 2.50525-1.67015 5.01051-4.17539 7.51576-5.84554 1.67017-1.67015 3.34035-3.34031 5.8456-4.17538 2.50526-1.67016 5.84559-2.50523 9.18593-4.17538 2.50526-1.67017 5.01051-5.01047 8.35086-5.01047 3.34033-.83508 7.51576 1.67015 10.8561 1.67015s7.51577 0 10.02103-1.67015c3.34033-1.67016 4.17541-5.84554 6.68068-7.5157 2.50525-2.50523 6.68067-2.50523 9.18593-5.01047 1.67017-1.67015.83509-4.17538 2.50526-6.68061.83508-1.67015 1.67016-3.3403 3.34033-4.17538 2.50526 0 5.01051 1.67015 7.51577 2.50523 1.67017 0 4.17543 1.67015 6.68068 1.67015 1.67017 0 3.34035-3.3403 5.8456-4.17538 1.67017 0 4.17543 0 5.84559.83508 1.67017.83507 1.67017 3.3403 3.34035 5.01046.83508.83507 2.50525 1.67016 4.17542 1.67016 4.17542-.83509 9.18594-.83509 12.52628-3.34032 1.67017-.83507.83509-4.17538 2.50525-5.01046 1.67017 0 2.50526 3.34031 4.17543 4.17539 2.50525.83507 6.68068.83507 9.18593 1.67015 2.50526.83508 3.34035 4.17538 5.01051 3.34031 4.17543-.83507 8.35086-3.34031 10.85611-6.68062 1.67018-2.50523 0-6.68062 1.67018-8.35077 1.67016-2.50524 5.0105-2.50524 6.68068-4.17538 5.84559-2.50524 11.69119-4.17539 15.86662-8.35078 1.67016-.83507.83508-3.34031.83508-5.01046 0-1.67016-2.50526-1.67016-2.50526-2.50523 0-1.67016 1.67018-4.17539 3.34034-4.17539 1.67017 0 3.34034 4.17539 4.17544 2.50523 1.67017-1.67016-.8351-5.01045 0-8.35077 0-.83507.83508-2.50523 1.67017-4.17538 2.50525-3.34031 5.01051-6.68062 8.35084-10.02094 2.50527-3.34029 6.68069-6.68061 9.18594-10.02091.83509-1.67016.83509-4.17539 2.50526-5.84554 3.34034-4.17539 7.51577-9.18586 10.8561-13.36125 4.17543-4.17538 8.35086-7.51568 10.85611-11.69108 2.50526-4.17538 2.50526-9.18584 3.34035-14.1963.83508-3.34031 0-7.5157.83508-11.69108.83508-4.17539 1.67017-8.35078 4.17543-11.69109 1.67016-5.01045 5.01051-9.18584 7.51576-13.36123 2.50526-2.50522 5.8456-5.01046 6.68068-8.35077 1.67018-3.34031 0-7.5157.83509-10.85599.83509-7.51571 3.34034-14.19632 5.8456-20.04186 1.67017-5.84555 5.0105-10.85601 6.68068-15.86647.83508-1.67016 2.50525-3.3403 2.50525-5.01046 0-3.34031-1.67017-5.84555-1.67017-9.18585 0-2.50523 2.50525-5.01046 2.50525-7.51569-.83508-4.17538-4.17542-7.5157-4.17542-11.69109 0-3.3403 1.67017-7.51569 3.34034-10.856.83508-5.84554 4.17543-10.856 4.17543-15.86646s-5.01052-8.35078-5.01052-13.36124c0-4.17539 3.34035-8.35077 5.01052-12.52615.83508-2.50524.83508-5.01047 1.67016-6.68062 1.67018-1.67016 5.01052-2.50523 5.01052-4.17539 0-2.50523-3.34034-4.17539-3.34034-6.68061 0-1.67016 2.50525-4.17539 4.17542-3.34031 3.34034 1.67015 1.67018 7.51569 5.01051 9.18584 2.50526 1.67016 6.68068-.83507 9.18594-2.50522 2.50525-1.67016 4.17543-5.01047 6.68068-6.68062 4.17543-4.17539 9.18594-5.84554 12.52628-10.02093 3.34034-3.34031 5.01051-8.35077 7.51577-12.52615v-.83509c0-2.50522.83508-5.8455303 1.67017-8.3507703.83508-2.50522 3.34033-5.01046 4.17542-8.35077.83509-1.67015-.83509-3.34031 0-4.17539 1.67017-.83507 3.34034 2.50524 4.17542 1.67016 2.50526-1.67016 2.50526-5.8455397 4.17543-8.3507697 2.50526-2.505231 5.8456-5.010462 9.18594-7.515694 5.01051-5.010463 10.02102-10.020927 15.86662-14.196312 2.50525-1.670155 5.0105-3.340309 7.51576-5.84554 1.67017-1.670154.83509-5.010463 2.50525-6.680617 1.67018-.835077 4.17543 0 5.8456-.835077 1.67018-1.670155 3.34034-3.340309 4.17543-5.84554.83508-.835078-.83509-3.340309 0-5.010463 3.34034-4.175386 8.35085-6.680617 11.69119-10.856004 3.34034-3.340309 6.68068-7.515694 8.35085-11.691079 3.34034-5.010463 4.17542-10.020926 6.68068-15.866467 2.50525-5.845537 5.8456-11.691077 7.51577-18.371697.83508-6.68062.83508-13.36123 0-19.20678 0-8.35077 0-15.86646-.83509-24.21724-.83508-4.17537-1.67016-9.18584-2.50525-14.19631-.83509-3.3403-.83509-6.68061-1.67018-10.856-2.50525-6.68061-5.01051-13.36123-8.35084-19.20677-1.67017-2.50523-4.17543-4.17539-6.68068-5.01046-6.68069-2.50523-13.36137-3.34032-20.04205-4.17539-5.01051-.83507-10.02102 1.67016-15.03153.83507-5.8456-1.67014-10.85611-5.84553-15.86661-8.35076-5.8456-4.17538-10.02103-8.35077-15.03154-11.69108-5.84559-4.17539-10.85611-8.35077-15.86662-13.36123-5.01051-4.17539-9.18594-9.18586-14.19644-14.19632-4.17543-3.34031-8.35086-7.5157-13.36137-10.02092-5.01051-3.34031-11.69119-3.34031-17.53679-5.84555-3.34034-2.50522-6.68067-5.84554-10.8561-7.5157-5.01051-1.67014-10.02103-1.67014-15.03154-2.50522-5.0105 0-10.8561.83508-15.86661 1.67015-3.34034.83507-6.68069 4.17539-10.8561 4.17539-4.17543-.83507-7.51578-5.01046-11.6912-6.68061-2.50526-.83509-5.84559-2.50524-9.18594-2.50524-3.34034-.83507-7.51576 1.67015-10.85611.83507-1.67017-.83507-2.50525-4.17538-4.17543-4.17538-3.34034-1.67015-7.51576 0-10.85611-.83508-1.67017-.83507-1.67017-4.17538-3.34033-5.01046-4.17543-1.67016-9.18594-1.67016-13.36137-3.34031-.83509 0-1.67017-2.50524-3.34034-2.50524-1.67017.8351-.83508 5.01048-2.50526 5.84555-2.50525.83508-5.01051-.83507-6.68068-2.50523-1.67016-.83508-.83508-5.01046-2.50525-4.17539-2.50526 1.67017-1.67017 5.84555-3.34034 8.35078-1.67017.83507-3.34034.83507-5.01051 0-1.67017 0-3.34034-1.67016-4.17543-2.50523-1.67017-.83509-3.34034-1.67016-5.0105-.83509-1.67018 2.50524-1.67018 6.68062-2.50527 10.02094-1.67016 2.50522-2.50525 5.01046-5.01051 7.51569-1.67016 1.67016-5.01051 2.50523-6.68068 5.01046-1.67016 3.34031-.83508 14.19631-2.50525 10.856-1.67017-4.17539 0-9.18585 1.67017-13.36123 0-1.67016 1.67017-4.17539 2.50525-6.68061.83509-1.67017 0-3.34031.83509-5.01047.83509-2.50523 2.50526-5.01046 4.17542-7.51569.83509-1.67016 2.50526-3.34031 4.17543-5.01048.83508-.83507 3.34035-1.67014 3.34035-2.50522-.8351-1.67016-2.50527-3.34031-4.17543-3.34031-1.67017.83508-3.34035 5.01046-5.01051 3.34031-1.67017-.83507.83508-3.34031 1.67016-5.01046.83509-1.67016 3.34035-2.50523 3.34035-4.17539 0-2.50523-1.67017-4.17538-3.34035-5.84554-.83508-.83508-3.34033 0-4.17542-.83508-1.67017-2.50523-2.50526-5.84553-4.17542-7.51569-.83509-.83507-2.50526 0-3.34035-.83507-1.67017 0-2.50525-2.50524-4.17543-1.67016-2.50525 0-4.17541 1.67016-5.0105 4.17539s3.34034 6.68061.83509 7.51568c-3.34035.83509-5.01052-4.17538-5.8456-6.68061-.83509-2.50523 3.34033-4.17538 3.34033-6.68062-.83508-1.67015-2.50525-2.50522-5.01051-2.50522-.83508-.83509-.83508 1.67015-1.67016 1.67015-1.67017-.83508 0-4.17539-1.67017-4.17539-2.50526-.83507-5.01051 1.67015-7.51577 1.67015s-5.01051-3.3403-7.51577-3.3403c-.83508 0-1.67016 3.3403-2.50525 2.50522-1.67018-1.67014 0-5.84553-1.67018-6.68061-2.50525-.83508-5.01051 4.17539-7.51576 3.34031-2.50525-.83507-2.50525-6.68061-5.84559-8.35078-4.17543-2.50522-8.35086-2.50522-13.36136-3.3403-4.17543-1.67016-8.35086-4.17539-12.52628-5.01046-1.67017 0 2.50525 4.17538.83509 3.3403-3.34035 0-6.68068-4.17538-10.02103-5.01046-2.50525 0-3.34034 3.34031-4.17543 3.34031-2.50525 1.67015-5.01051.83508-6.68067 2.50523-2.50526.83508-3.34034 3.34031-5.01052 5.01046-2.50525 2.50524-5.01051 5.01047-7.51576 7.5157-1.67017 1.67016-5.01051 3.3403-5.01051 5.01047 0 4.17538 7.51576 6.68061 5.01051 9.18584-1.67017 2.50523-5.84559-3.3403-8.35086-3.3403-3.34033.83507-5.0105 5.01046-7.51576 6.68062-1.67017.83507-2.50525 0-3.34034 0-3.34034 0-6.68068-.83509-10.02102.83507-3.34034.83507-5.84559 5.01046-9.18594 6.68061-2.50525.83508-5.01051 0-7.51576 0-3.34034 0-6.68068-2.50522-10.02102-1.67015-2.50526 1.67015-1.67018 8.35077-5.01052 7.51569-5.01051 0-5.84559-8.35076-10.02102-9.18584-2.50525-.83509-2.50525 5.84554-5.01051 6.68061-2.50525.83508-4.17542-2.50523-4.17542-5.01046.83508-2.50524 5.84559-2.50524 7.51576-5.84553.83509-2.50525.83509-6.68062 0-9.18586-.83508-2.50523-1.67017-5.84554-4.17542-5.84554-6.680684 0-12.52628 4.17539-19.206961 6.68062-5.845596 1.67016-12.526277 5.01046-18.371872 5.84553-4.175427.83509-8.350852 2.50525-11.691193 0-1.67017-.83507 2.505256-4.17537 4.175426-5.01045 4.175426-1.67016 10.021021.83508 14.196447-1.67016 3.34034-3.3403 3.34034-8.35077 5.010511-13.36123 0-.83508 0-2.50524.835085-3.34032 3.340341-5.84553 6.680681-12.52615 10.856107-17.53661 5.01051-6.68062 10.021021-11.69108 15.86662-17.53662 2.50525-2.50523 6.68068-4.17539 9.18593-7.51569 5.01051-4.17539 8.35085-9.18585 11.6912-14.19632 3.34034-4.17538 7.51576-9.18585 8.35085-15.03139 0-3.34031-2.50526-6.68062-5.01051-8.35077-5.01051-2.50523-10.85611.83508-15.03154-1.67014-3.34034-1.67017-4.17542-5.84555-5.01051-9.18586-.83508-1.67015.83509-3.34032.83509-5.84554-.83509-3.34031-2.50526-6.68062-4.17543-10.02093-2.50525-5.01047-5.01051-9.18584-6.680679-15.03138-.835084-5.01046-.835084-10.02093-1.67017-15.0314-.835085-3.34031 0-7.51569-1.67017-10.85599-2.505255-5.01047-5.845596-12.52616-11.691192-13.36124-3.340341 0 4.175426 8.35077 2.505256 11.69108-1.670171 2.50523-4.175427-5.84554-6.680682-5.01046-5.845596 4.17538-9.185936 11.69108-13.361362 17.53661-4.175425 7.5157-8.350851 15.0314-12.526277 22.54709-1.67017 4.17539-3.34034 7.51569-5.010511 10.856-1.67017 3.34031-1.67017 7.51569-4.175425 9.18584-3.340341 2.50524-8.350851 4.17539-12.526277 3.34032-4.175426-.83508-5.010511-5.84554-8.350852-6.68061-1.67017-.83509-3.34034 2.50522-5.010511 2.50522-1.67017 0-3.340335-3.34031-5.010505-3.34031-5.0105205.83509-7.5157705 6.68062-11.6912006 6.68062-4.17542.83508-6.68068-3.34031-10.8561-5.01046-.83509 0-2.5052604 2.50522-3.3403404 1.67015-4.17543-2.50522-6.68069-10.02092-11.6912-10.02092-6.68068-.83508-13.36136 6.68061-20.04204 7.5157-3.34034 0-5.84559-5.84555-8.35085-5.01048-4.17543.83509-7.51577 4.17539-8.35085 8.35077 0 4.17539 5.8456 7.5157 5.8456 11.69109 0 1.67016-3.34035 3.34031-5.01052 2.50523-4.17542-1.67014-6.68067-7.51569-10.8561-8.35077-1.67017-.83508 1.67016 4.17538 0 5.84554-1.67017 1.67016-5.8456 3.34031-9.18594 3.34031-2.50525 0-5.01051-3.34031-8.35085-3.34031-4.17543-.83508-10.02102-1.67016-14.196452.83509-1.67017.83507 2.505262 5.01046 0 5.84553-4.17542 2.50523-10.85611 0-15.86662 1.67015-1.67017 0 1.67018 3.34031 0 4.17539-2.50525.83508-5.0105-2.50523-6.68068-1.67016-5.01051 2.50524-5.8456 9.18585-10.85611 10.85601-3.34033 1.67015-8.35084-.83509-11.69119-2.50523-5.01051-2.50524-10.02102-5.84554-13.36136-10.02093-2.50526-2.50523-3.34034-5.84554-4.17542-9.18585 0-3.34031 3.34034-6.68062 2.50526-10.02092-.8351-2.50524-5.8456-3.34032-6.68069-5.84555-1.67017-4.17539-2.50525-10.02092-2.50525-14.19631.83508-2.50523 4.17542-3.3403 5.01051-5.01046 1.67017-2.50523-.83509-5.01046.83508-7.51569 2.50525-3.34032 8.35085-3.34032 9.18594-6.68062 1.67017-5.01047-1.67018-9.18585-2.50526-14.19632-.83508-3.3403-2.50525-6.68061-3.34033-9.18584-1.67018-1.67016-2.50526-4.17538-4.17543-5.01046s-5.01051.83508-6.68068-.83508c-3.34035-3.34031-5.01051-7.51569-5.01051-11.69109-.83509-3.3403 3.34033-5.84554 2.50525-9.18584-.83509-1.67015-4.17543-3.34032-6.68068-3.34032-2.50525.83509-3.34035 4.17539-5.8456 5.84555-1.67016.83507-3.34034.83507-5.01051 0-2.50525-.83507-4.17543-5.84555-5.01051-4.17538-1.67017 2.50522 2.50526 5.01045 2.50526 7.51569.83508 2.50522.83508 5.01047-.83509 6.68061-2.50525 3.34032-5.8456 5.84555-10.02102 7.5157-4.17542 2.50524-10.02102 2.50524-14.19645 5.01046-2.50525 1.67016-2.50525 5.84554-5.01051 7.5157-3.34034 1.67016-8.35085 1.67016-11.69119 2.50523-5.01051.83507-9.18593-1.67016-13.36136 0-4.17543 1.67015-7.51577 4.17539-10.02102 7.51569-.83509 2.50523 1.67016 5.01047.83508 7.5157-.83508 1.67015-3.34033.83508-4.17543 0-2.50525-1.67016-3.34033-5.84554-5.84559-6.68061-2.50525-1.67017-5.8456 0-8.35085-.83509-5.01051-.83508-10.02102-2.50523-14.19645-5.01046-3.34034-1.67016-4.17542-8.35077-8.35085-8.35077s-8.35086 5.01047-10.85611 9.18586c-1.67016 2.50522-.83508 7.51568 1.67017 9.18584 3.34035 2.50523 9.18594-1.67016 12.52628 1.67015 2.50526 1.67016 1.67017 5.84555.83509 9.18584-.83509 2.50524-2.50526 4.17539-4.17543 6.68062-.83508 2.50524-2.50526 5.01046-2.50526 8.35078 0 4.17539.83509 7.51569 1.67018 11.69108.83508 2.50522 1.67016 4.17539 3.34033 5.84554.83509 1.67015 3.34035 1.67015 5.01051 1.67015 1.67018.83508 4.17543 3.34031 6.68068 2.50523 1.67018 0 3.34035-3.34031 5.01052-3.34031 3.34034.83508 7.51577 5.01047 5.01051 6.68062-4.17543 4.17539-11.69119 0-15.86662 4.17539-5.8456 4.17538-4.17542 15.03139-10.02102 19.20678-2.50526 2.50522-2.50526-6.68063-5.84559-6.68063-3.34035 0-4.17543 5.84555-6.68069 8.35078-5.8456 5.01046-11.69119 8.35076-16.7017 12.52615-2.50525 2.50524-3.34034 9.18585-6.68068 8.35078-4.17543 0-1.67017-7.5157-5.01051-10.02093-2.50526-1.67016-5.8456-2.50524-8.35085 0-2.50526 2.50523 0 10.856-4.17543 10.856-5.84559.83509-9.18594-5.84553-14.19644-9.18585-4.17543-2.50522-9.18594-4.17539-11.6912-8.35076-1.67017-1.67016.83509-5.01047 0-7.51571-3.34034-6.68061-5.8456-15.86646-12.52628-18.37169-5.01051-1.67014-5.84559 10.02093-10.8561 10.85601-3.34034.83507-4.17542-5.84555-7.51577-7.51569-2.50525-.83509-5.84559-.83509-6.68068 1.67014-.83508 2.50524 5.8456 7.5157 2.50525 8.35077-10.8561 4.17539-22.54729 1.67017-34.23848 1.67017-4.17543 0-10.85611-3.34032-12.52628.83507-2.50526 6.68061-.83508 15.03138 2.50525 22.54708.83509 2.50523 5.8456 0 8.35086 0 2.50525-.83507 5.01051-2.50523 6.68068-.83507 2.50525 1.67014 1.67016 5.84553 1.67016 8.35076-.83508 2.50524-2.50525 5.84554-5.01051 5.84554-2.50525 0-4.17542-5.84554-7.51576-5.84554-4.17543.83508-10.02102 3.34032-11.69119 7.5157-2.50525 6.68062-.83508 14.19631 0 20.87693.83508 2.50523 2.50525 4.17539 5.01051 6.68061 1.67017.83509 5.01051.83509 5.8456 3.34031 2.50525 2.50523 1.67016 5.84555 3.34034 9.18586.83508 2.50522 3.34034 4.17538 3.34034 6.68061 0 4.17539-2.50526 7.51569-2.50526 11.69108 0 3.34031 1.67017 7.51569.83509 10.85601-2.50526 18.37169-5.8456 37.57847-10.02103 55.95016-1.67016 7.5157-1.67016 16.70155-6.68067 21.71201-2.50527 2.50523-6.68068-6.68062-10.02103-5.84554-5.01051.83508-6.68068 7.51569-11.69119 8.35077-2.50525.83507-5.01051-4.17539-7.51576-3.34031-2.50526 0-3.34035 3.34031-5.8456 4.17538-2.50526 1.67017-5.84559-.83507-8.35085 0-5.01052 2.50524-8.35085 6.68062-12.52628 10.02094-4.17543 3.3403-9.18594 5.01046-12.52627 9.18584-4.17543 4.17538-6.68069 10.02093-8.35086 15.03139-1.67017 4.17539-2.50525 8.35077-3.34033 12.52616 0 3.3403.83508 6.68062 0 10.02092-.8351 4.17539-.8351 9.18585-4.17543 12.52615-1.67017 3.34032-7.51577 1.67016-9.18594 5.01048-2.50525 4.17537-1.67017 9.18584-1.67017 13.36122 0 2.50524 1.67017 5.84555 0 7.5157-1.67017 2.50523-5.8456.83508-6.68068 3.34031-.83508 1.67015.83508 4.17539 1.67017 5.84554 1.67016 1.67015 4.17543 1.67015 5.84559 3.34031 1.67017 1.67015.83509 5.01046 1.67017 6.68062.83509 2.50523 1.67018 5.01046 3.34035 6.68061zm643.015549-244.67761c2.505256-4.17538 5.010511-9.18584 8.350851-13.36123 2.505256-2.50524 6.680681-10.02092 9.18594-7.51569 3.34034 4.17538-.83509 10.856-2.505259 15.03139-1.67017 5.01046-5.010511 10.02092-9.185936 13.36124-3.34034 3.3403-9.185937 11.69108-12.526277 7.51569-4.175426-4.17539 4.175426-10.02093 6.680681-15.0314zm27.557811-11.69108c-.83509 3.34032 2.50525 6.68062 2.50525 10.02094-.83508 3.34031-5.01051 5.01046-5.01051 7.51569-.83508 4.17539 0 9.18585 2.50526 12.52616 1.67017 1.67015 5.84559 0 7.51576 1.67015 1.67017 1.67016-1.67017 5.01046 0 5.84555 4.17543 1.67014 8.35086 0 11.6912.83507 2.50525 0 4.17542 2.50522 6.68068 1.67015 1.67017 0 .83508-3.34031 2.50525-5.01047 3.34034-1.67014 6.68069-.83507 9.18594-2.50523 3.34034-.83507 5.01051-4.17538 8.35085-4.17538 1.67017 0 2.50525 3.34031 5.01051 3.34031 1.67017 0 4.17543-1.67015 5.01052-4.17539 0-2.50522-4.17543-6.68061-2.50526-9.18585 2.50526-4.17538 9.18594-4.17538 12.52627-8.35076 3.34034-4.17539 10.85611-10.02094 7.51577-15.0314-4.17543-5.84554-15.03153-7.51569-21.71221-4.17538-5.01051 3.34031 0 13.36123-4.17543 18.3717-1.67017 2.50522-3.34033-5.84554-3.34033-9.18586 0-1.67015 4.17541-.83507 4.17541-2.50522 0-2.50524-1.67016-5.01046-3.34033-5.84554-5.8456-2.50524-11.69119-1.67016-17.53679-1.67016-5.01051-.83508-10.85611-.83508-15.86662 0-2.50526.83508-4.17543 3.34031-6.68068 5.01046-1.67017 1.67017-5.01051 2.50524-5.01051 5.01046zm15.86662-15.03138c5.01051-.83508 10.02102.83508 13.36136-1.67016 2.50525-1.67015 5.01051-6.68061 3.34034-8.35077-4.17543-3.3403-10.85611.83509-15.03153-1.67015-1.67017-1.67015 5.01051-7.5157 2.50525-7.5157-5.01051 0-9.18594 3.34032-12.52628 6.68062-2.50525 1.67016-5.01051 4.17539-5.01051 7.5157-.83508 2.50523 0 5.84554 2.50526 6.68061 1.67017.83508 1.67017-3.34031 2.50525-5.01046 1.67017-1.67015 1.67017-4.17539 4.17543-5.01046.83509-.83507 3.34034.83507 2.50526 2.50522 0 2.50524-5.01052 4.17539-4.17543 5.84555 0 2.50523 4.17543 0 5.8456 0zm-22.5473-.83508c-3.34034.83508-1.67017 8.35078 0 10.856 1.67017 2.50524 6.68068.83507 6.68068-.83507 0-4.17539-2.50526-10.85601-6.68068-10.02093z" fill="#009df2" stroke="#000" stroke-width="1.670162"/><path d="m371.25011 30.849865h-180.94468v155.248555h-109.777442v-155.248555h-180.944658v-101.212024h180.944658v-155.248471h109.777442v155.248471h180.94468z" fill="#fff" stroke-width="31.476379"/></svg>