<svg height="24" viewBox="0 0 24 24" width="24" xmlns="http://www.w3.org/2000/svg"><path d="m19.63871 2.6774194 1.3 1.3-16.8000003 16.6999996-1.3-1.3z" fill="#765c69"/><g stroke-width="1.16667"><path d="m4.0815563.98138161a2.3333333 2.3333333 0 0 0 -2.3333333 2.33333309v2.3333333a2.3333333 2.3333333 0 0 0 2.3333333 2.3333334h2.3333334v2.3333296h-4.6666667v2.333334h4.6666667a2.3333333 2.3333333 0 0 0 2.3333333-2.333334v-2.3333296a2.3333333 2.3333333 0 0 0 -2.3333333-2.3333334h-2.3333334v-2.3333333h4.6666667v-2.33333309z" fill="#57b952"/><path d="m15.355313 11.217979v11.666667h2.333333v-5.833334l2.333334 5.833334h2.333333v-11.666667h-2.333333v5.833333l-2.333334-5.833333z" fill="#ed1c24"/></g></svg>