<svg height="24" viewBox="0 0 24 24" width="24" xmlns="http://www.w3.org/2000/svg"><path d="m9 4 2 2h8c1.104569 0 2 .8954305 2 2v3.81c-1.17-1.12-2.75-1.81-4.5-1.81-3.589851 0-6.5 2.910149-6.5 6.5 0 1.29.37 2.5 1 3.5h-8c-1.11 0-2-.9-2-2v-12c0-1.11.89-2 2-2z" fill="#4a8dac"/><path d="m9 4 2 2h8c1.104569 0 2 .8954305 2 2v3.81c-1.17-1.12-2.75-1.81-4.5-1.81-3.589851 0-6.5 2.910149-6.5 6.5 0 1.29.37 2.5 1 3.5h-8c-1.11 0-2-.9-2-2v-12c0-1.11.89-2 2-2z" fill="#ffd767"/><path d="m17.40149 18.4633c1.49625 0 4.5.75375 4.5 2.25v1.125h-9v-1.125c0-1.49625 3.00375-2.25 4.5-2.25m0-1.125c1.24875 0 2.25-1.00125 2.25-2.250001 0-1.248746-1.00125-2.249991-2.25-2.249991-1.2375 0-2.25 1.001245-2.25 2.249991 0 1.248751 1.0125 2.250001 2.25 2.250001" fill="#4285f4" stroke-width="1.124995"/></svg>