<svg height="24" viewBox="0 0 24 24" width="24" xmlns="http://www.w3.org/2000/svg"><path d="m10 4h-6c-1.11 0-2 .89-2 2v12a2 2 0 0 0 2 2h16a2 2 0 0 0 2-2v-10c0-1.11-.9-2-2-2h-8z" fill="#fa0f00"/><g fill="#fff"><path d="m5.2044619 10v6h1.200002v-2.400003h1.2000018a1.200002 1.200002 0 0 0 1.2000019-1.200002v-1.200003a1.200002 1.200002 0 0 0 -1.2000019-1.199992zm1.200002 1.199992h1.2000018v1.200003h-1.2000018z" stroke-width=".600001"/><g stroke-width=".6"><path d="m10.15985 10v6h2.400001a1.2000004 1.2000004 0 0 0 1.200001-1.200001v-3.600001a1.2000004 1.2000004 0 0 0 -1.200001-1.199998zm1.200001 1.199998h1.2v3.600001h-1.2z"/><path d="m15.022287 10v6h1.200001v-2.400001h1.8v-1.200001h-1.8v-1.2h2.400001v-1.199998z"/></g></g></svg>