<svg height="24" viewBox="0 0 24 24" width="24" xmlns="http://www.w3.org/2000/svg"><path d="m12.010776 18.2125a6.5099442 6.075 0 0 1 -6.5099401-6.075c0-1.0125.2712477-1.994624.7594935-2.835l-1.5840864-1.47825c-.8462928 1.245375-1.3453885 2.723626-1.3453885 4.31325a8.6799257 8.1 0 0 0 8.6799215 8.1v3.0375l4.339962-4.05-4.339962-4.05m0-11.1375v-3.0375l-4.3399587 4.05 4.3399587 4.05v-3.0375a6.5099442 6.075 0 0 1 6.509944 6.075c0 1.0125-.271249 1.994626-.759494 2.835l1.584087 1.47825c.846293-1.245374 1.345388-2.723624 1.345388-4.31325a8.6799257 8.1 0 0 0 -8.679925-8.1z" fill="#007b00" stroke-width="1.04812"/></svg>