<svg height="24" viewBox="0 0 24 24" width="24" xmlns="http://www.w3.org/2000/svg"><path d="m18 14.5c1.11 0 2.11.45 2.83 1.17l1.17-1.17v4h-4l1.77-1.77c-.45-.45-1.08-.73-1.77-.73-1.38 0-2.5 1.12-2.5 2.5s1.12 2.5 2.5 2.5c.82 0 1.54-.39 2-1h1.71c-.59 1.47-2.03 2.5-3.71 2.5-2.21 0-4-1.79-4-4s1.79-4 4-4" fill="#e4a224"/><path d="m6 2h8l6 6v4.17c-.5-.11-1-.17-1.5-.17-3.59 0-6.5 2.91-6.5 6.5 0 1.29.37 2.5 1 3.5h-7c-1.12 0-2-.9-2-2v-16c0-1.11.89-2 2-2z" fill="#1fb58f"/><path d="m6 3.8v9.999954h1.9999953v-3.9999903h2a1.9999934 1.9999938 0 0 0 2.0000057-1.999997v-1.999987a1.9999934 1.9999938 0 0 0 -2.0000057-1.9999797zm1.9999953 1.9999797h2v1.999987h-2z" fill="#0ff" stroke-width=".999992"/></svg>