<svg height="24" viewBox="0 0 24 24" width="24" xmlns="http://www.w3.org/2000/svg"><path d="m6.500216 5.9997845a1.5 1.5 0 0 1 -1.5-1.5 1.5 1.5 0 0 1 1.5-1.5 1.5 1.5 0 0 1 1.5 1.5 1.5 1.5 0 0 1 -1.5 1.5m15.91 4.5799995-9-8.9999995c-.36-.36-.86-.58000004-1.41-.58000004h-7c-1.11 0-2 .89000004-2 2.00000004v7c0 .5499995.22 1.0499995.59 1.4099995l8.99 9c.37.36.87.59 1.42.59s1.05-.23 1.41-.59l7-7c.37-.36.59-.86.59-1.41 0-.56-.23-1.06-.59-1.42z" fill="#e7e7e7" transform="matrix(.89998053 0 0 .89997955 .300059 2.10043)"/></svg>