<svg height="24" viewBox="0 0 24 24" width="24" xmlns="http://www.w3.org/2000/svg"><g fill="#e7e7e7"><path d="m16.42006 13.98858c-2.485282 0-4.5 2.014717-4.5 4.499996s2.014718 4.500004 4.5 4.500004 4.5-2.014725 4.5-4.500004-2.014718-4.499996-4.5-4.499996m1.969024 7.022189-2.577073-1.966828.05268-3.85902h1.122805v3.393655l2.051341 1.636462z" stroke-width=".45"/><path d="m10.503904 19.964061h-7.5758132c-1.046676 0-1.885902-.9-1.885902-2v-12.0000153c0-1.11.839226-2 1.885902-2h5.657706l1.8859102 2h6.600657c1.041555 0 1.885902.8954305 1.885902 2h-16.0301752v10.0000153l2.017915-8.0000157h16.0961822l-.852795 3.0853817c-5.62744-2.593623-11.189393 1.354373-9.685489 6.914634z" stroke-width=".971057"/></g></svg>