<svg height="24" viewBox="0 0 24 24" width="24" xmlns="http://www.w3.org/2000/svg"><path d="m10 4h-6c-1.11 0-2 .89-2 2v12a2 2 0 0 0 2 2h16a2 2 0 0 0 2-2v-10c0-1.11-.9-2-2-2h-8z" fill="#57b952"/><g fill="#fff"><path d="m15 9.9999998v6.0000002h1.200002v-2.400003h1.200002a1.200002 1.200002 0 0 0 1.200002-1.200002v-1.200003a1.200002 1.200002 0 0 0 -1.200002-1.1999922zm1.200002 1.1999922h1.200002v1.200003h-1.200002z" stroke-width=".600001"/><g stroke-width=".6"><path d="m5 10v1.2h2.3999999l-2.3999999 3.6v1.2h3.5999999v-1.2h-2.3999999l2.3999999-3.6v-1.2z"/><path d="m13.02454 10v1.2h-.6v3.6h.6v1.2h-2.4v-1.2h.6v-3.6h-.6v-1.2z"/></g></g></svg>