<svg height="24" viewBox="0 0 24 24" width="24" xmlns="http://www.w3.org/2000/svg"><path d="m20.31 18.9c1.33-2.11.69-4.9-1.4-6.22-2.11-1.33-4.91-.68-6.22 1.4-1.34 2.11-.69 4.89 1.4 6.22 1.46.93 3.32.93 4.79.02l3.12 3.07 1.39-1.39zm-3.81.1c-1.380712 0-2.5-1.119288-2.5-2.5s1.119288-2.5 2.5-2.5 2.5 1.119288 2.5 2.5-1.119288 2.5-2.5 2.5z" fill="#286da8"/><path d="m14 2h-8c-1.1045695 0-2 .8954305-2 2v16c0 1.104569.8954305 2 2 2h7c-.41-.25-.8-.56-1.14-.9-2.64-2.43-2.81-6.54-.36-9.18 2.19-2.42 5.83-2.79 8.5-.92v-3z" fill="#1fb58f"/><path d="m6.0910767 3.8023694v9.9999536h1.9999953v-3.9999895h2a1.9999934 1.9999938 0 0 0 2.000005-1.9999976v-1.9999867a1.9999934 1.9999938 0 0 0 -2.000005-1.9999798zm1.9999953 1.9999798h2v1.9999867h-2z" fill="#0ff" stroke-width=".999992"/></svg>