<svg height="40" viewBox="0 0 59.999997 40" width="60" xmlns="http://www.w3.org/2000/svg" xmlns:xlink="http://www.w3.org/1999/xlink"><clipPath id="a"><path d="m0 567h794v-567h-794z"/></clipPath><g clip-path="url(#a)" transform="matrix(.14570707 0 0 -.14570707 -27.924329 61.608307)"><g fill-rule="evenodd"><path d="m0 0v-34.193c-5.186-.278-9.73-1.642-13.595-4.051-4.269-2.717-7.763-6.211-10.591-10.481-2.773-4.325-4.935-8.927-6.377-13.918-1.497-4.936-2.384-9.76-2.717-14.418h33.28v-34.269h-33.28c.388-7.875 1.941-14.639 4.714-20.241 2.772-5.599 6.487-10.202 11.09-13.752 4.602-3.549 9.87-6.155 15.804-7.818.554-.151 1.11-.294 1.672-.43v-38.556c-15.009 1.138-28.043 4.797-39.103 11.038-13.364 7.596-23.511 18.299-30.499 32.273-6.986 13.919-10.535 30.499-10.591 49.796 0 10.702 1.22 20.961 3.605 30.776 2.44 9.76 5.933 18.854 10.647 27.117 4.658 8.317 10.425 15.526 17.301 21.682 6.876 6.154 14.75 10.979 23.622 14.362 7.638 2.94 15.965 4.624 25.018 5.083m-87.512-13.512c-5.38 2.883-11.978 5.323-19.853 7.264-7.818 1.941-16.524 2.994-26.062 3.05-10.314-.056-19.686-1.553-28.003-4.492-8.319-2.939-15.471-7.042-21.405-12.31-5.934-5.269-10.48-11.479-13.641-18.577s-4.769-14.806-4.824-23.179c-.056-6.765 1.441-13.419 4.547-19.908 3.105-6.432 8.151-12.532 15.083-18.298 6.931-5.768 16.136-10.98 27.614-15.694 6.71-2.828 12.034-5.545 15.916-8.041 3.882-2.55 6.654-5.267 8.318-8.095 1.663-2.829 2.44-6.1 2.384-9.815 0-5.712-2.107-10.259-6.322-13.586-4.214-3.271-10.646-4.991-19.297-5.046-5.157.055-10.48.665-15.86 1.941-5.434 1.219-10.535 2.772-15.304 4.658-4.769 1.885-8.817 3.77-12.089 5.711l-9.316-35.6c4.159-2.44 8.984-4.602 14.529-6.432 5.49-1.831 11.478-3.272 17.855-4.326 6.433-.998 13.032-1.552 19.852-1.552 15.471.055 28.614 2.495 39.427 7.319 10.869 4.88 19.13 11.645 24.842 20.406 5.657 8.706 8.54 19.021 8.596 30.832.055 12.754-3.716 23.789-11.202 33.049-7.542 9.261-19.131 17.08-34.713 23.512-7.042 2.939-12.643 5.656-16.802 8.096s-7.098 4.991-8.872 7.542c-1.775 2.606-2.662 5.601-2.607 8.983 0 3.383.888 6.377 2.607 9.039 1.774 2.606 4.325 4.713 7.763 6.266 3.383 1.497 7.597 2.329 12.588 2.329 4.713-.055 9.205-.555 13.474-1.553 4.326-.942 8.319-2.218 11.978-3.66 3.66-1.496 6.821-2.938 9.482-4.436zm226.577 9.648h-49.242v-185.321h49.242zm-139.065-107.466v34.269h33.263c.11 4.881-.333 9.871-1.387 14.862-.998 4.991-2.772 9.593-5.156 13.863-2.441 4.214-5.712 7.597-9.816 10.203-4.103 2.606-9.205 3.937-15.25 3.992-.558-.005-1.109-.023-1.654-.052v34.193c1.528.078 3.078.121 4.649.129 15.083 0 28.115-3.549 39.205-10.481 11.09-6.987 19.629-17.301 25.73-30.942 6.1-13.586 9.204-30.388 9.261-50.406 0-3.66-.112-7.209-.278-10.536-.221-3.383-.554-6.377-1.053-9.094zm0-80.797v38.556c5.445-1.326 11.209-2.01 17.292-2.01 9.095.055 17.356.777 24.732 2.218 7.431 1.387 14.251 3.216 20.518 5.435l6.986-33.938c-5.101-2.217-10.869-4.102-17.246-5.711-6.321-1.608-13.086-2.828-20.295-3.66s-14.639-1.275-22.347-1.275c-3.299.018-6.513.146-9.64.385" fill="#fff" transform="translate(398.7783 348.2153)"/><g fill="#91bb25"><path d="m549.983 229.232h49.241v185.321h-49.241z"/><path d="m0 0c14.658 0 26.614 11.987 26.614 26.685 0 14.696-11.956 26.684-26.614 26.684-14.659 0-26.615-11.988-26.615-26.684 0-14.698 11.956-26.685 26.615-26.685" transform="translate(513.1982 360.3779)"/></g></g><path d="m0 0c14.658 0 26.614 11.987 26.614 26.685 0 14.696-11.956 26.684-26.614 26.684-14.659 0-26.615-11.988-26.615-26.684 0-14.698 11.956-26.685 26.615-26.685z" fill="none" stroke="#91bb25" stroke-miterlimit="22.926" stroke-width=".567" transform="translate(513.1982 360.3779)"/><g fill="#fff"><path d="m0 0c14.659 0 26.615 11.987 26.615 26.685 0 14.697-11.956 26.683-26.615 26.683s-26.614-11.986-26.614-26.683c0-14.698 11.955-26.685 26.614-26.685" fill-rule="evenodd" transform="translate(574.6035 159.4844)"/><path d="m0 0c14.659 0 26.615 11.987 26.615 26.685 0 14.697-11.956 26.683-26.615 26.683s-26.614-11.986-26.614-26.683c0-14.698 11.955-26.685 26.614-26.685z" stroke="#0994dc" stroke-miterlimit="22.926" stroke-width=".567" transform="translate(574.6035 159.4844)"/></g></g></svg>