<svg height="24" viewBox="0 0 24 24" width="24" xmlns="http://www.w3.org/2000/svg"><path d="m20.738307 19.460347-1.277898 1.27795a.89992865.89996433 0 0 1 -1.2689 0l-10.6911524-10.673577a3.4287282 3.4288641 0 0 1 -.8999286.134995 3.5997146 3.5998573 0 0 1 -3.4017303-4.7698113l2.2858187 2.2859094.4769622-.4769811 1.2778987-1.2779493.4769622-.4769811-2.2858188-2.2859094a3.5997146 3.5998573 0 0 1 4.7696223 3.4018651 3.4287282 3.4288641 0 0 1 -.134989.8999644l10.673153 10.6915763a.89992865.89996433 0 0 1 0 1.268949m-17.4766143-1.268949a.89992865.89996433 0 0 0 0 1.268949l1.2778987 1.27795a.89992865.89996433 0 0 0 1.2688994 0l4.9226102-4.913806-2.5467986-2.546899m11.0151266-10.277592-3.599714 1.7999287v1.7999286l-1.952845 1.9529226 1.799857 1.7999291 1.952845-1.952923h1.799857l1.799858-3.5998573z" fill="#fff" stroke-width=".899947"/></svg>