<svg height="24" viewBox="0 0 24 24" width="24" xmlns="http://www.w3.org/2000/svg"><path d="m3.7005647 4.6779663h16.6666683c.875 0 1.666667.7916667 1.666667 1.6666667v11.666665c0 .875-.791667 1.666667-1.666667 1.666667h-16.6666683c-.875 0-1.6666665-.791667-1.6666665-1.666667v-11.666665c0-.875.7916665-1.6666667 1.6666665-1.6666667m10.0000023 2.5v.8333333h6.666666v-.8333333zm0 1.6666669v.8333322h6.25.416666v-.8333322zm0 1.6666648v.833334h5.833333v-.833334zm-5.0000023 3.258334c-1.6666667 0-5 .908333-5 2.575v.833333h10.0000023v-.833333c0-1.666667-3.333335-2.575-5.0000023-2.575m0-6.5916657a2.5 2.5 0 0 0 -2.5 2.4999991 2.5 2.5 0 0 0 2.5 2.4999996 2.5 2.5 0 0 0 2.5000013-2.4999996 2.5 2.5 0 0 0 -2.5000013-2.4999991z" fill="#e7e7e7" stroke-width=".833333"/></svg>