<svg height="24" viewBox="0 0 24 24" width="24" xmlns="http://www.w3.org/2000/svg"><g fill="#fff"><path d="m24 2.6666671v18.6666669c0 1.472759-1.193907 2.666666-2.666666 2.666666h-18.6666669c-1.4727596 0-2.6666671-1.193907-2.6666671-2.666666v-18.6666669c0-1.4727596 1.1939075-2.6666671 2.6666671-2.6666671h18.6666669c1.472759 0 2.666666 1.1939075 2.666666 2.6666671m-2.091858-.5748095h-19.8162844v19.8162844h19.8162844z" stroke-width="1.33334"/><path d="m12.024192 14.966901a1.5403225 1.4326556 0 0 1 1.540322 1.432655 1.5403225 1.4326556 0 0 1 -1.540322 1.432656 1.5403225 1.4326556 0 0 1 -1.540322-1.432656 1.5403225 1.4326556 0 0 1 1.540322-1.432655m0-4.297967a1.5403225 1.4326556 0 0 1 1.540322 1.432656 1.5403225 1.4326556 0 0 1 -1.540322 1.432655 1.5403225 1.4326556 0 0 1 -1.540322-1.432655 1.5403225 1.4326556 0 0 1 1.540322-1.432656m0-4.2979662a1.5403225 1.4326556 0 0 1 1.540322 1.4326556 1.5403225 1.4326556 0 0 1 -1.540322 1.4326554 1.5403225 1.4326556 0 0 1 -1.540322-1.4326554 1.5403225 1.4326556 0 0 1 1.540322-1.4326556z" stroke-width=".742757"/></g></svg>