<svg height="24" viewBox="0 0 24 24" width="24" xmlns="http://www.w3.org/2000/svg">
  <path
      d="m3.9 2h14.4a.9.90909091 0 0 1 .9.9090909v3.6363636a.9.90909091 0 0 1 -.9.909091h-14.4a.9.90909091 0 0 1 -.9-.909091v-3.6363636a.9.90909091 0 0 1 .9-.9090909m0 7.2727273h14.4a.9.90909091 0 0 1 .9.9090907v.609091l-2.25-1.0090911-5.85 2.6181821v2.327273h-7.2a.9.90909091 0 0 1 -.9-.909091v-3.636364a.9.90909091 0 0 1 .9-.9090907m0 7.2727277h7.2c.054 2.045454.9 4 2.214 5.454545h-9.414a.9.90909091 0 0 1 -.9-.909091v-3.636364a.9.90909091 0 0 1 .9-.90909m4.5-10.9090913h.9v-1.8181819h-.9zm0 7.2727273h.9v-1.818182h-.9zm0 7.272727h.9v-1.818181h-.9zm-3.6-16.3636362v1.8181819h1.8v-1.8181819zm0 7.2727272v1.818182h1.8v-1.818182zm0 7.272728v1.818181h1.8v-1.818181zm12.15-6.363637 4.05 1.818182v2.727273c0 2.527272-1.728 4.881818-4.05 5.454545-2.322-.572727-4.05-2.927273-4.05-5.454545v-2.727273zm0 1.763637-2.25 1.018181v2.418182c0 1.4.963 2.709091 2.25 3.036363z"
      fill="#e7e7e7" stroke-width=".904534"/>
</svg>