<svg height="24" viewBox="0 0 24 24" width="24" xmlns="http://www.w3.org/2000/svg"><path d="m20.14736 7.0419386c-.329198.3399528-.648714.669907-.658396.9998612-.02905.3199555.300151.6499097.609985.9598666.464751.4999306.919819.9498681.900454 1.4397996-.01936.489932-.513162.999862-1.006959 1.499792l-3.998792 4.139425-1.374887-1.419803 4.114979-4.239411-.929501-.9598664-1.374887 1.4098044-3.630864-3.7494795 3.718004-3.8294681c.37761-.3899459 1.00696-.3899459 1.365205 0l2.265659 2.339675c.37761.3699486.37761 1.0198584 0 1.4098042m-17.14736 10.2085824 9.256283-9.5686713 3.630864 3.7494793-9.256283 9.568671h-3.630864z" fill="#fedc3d" stroke-width=".983919"/></svg>