<svg height="24" viewBox="0 0 24 24" width="24" xmlns="http://www.w3.org/2000/svg"><path d="m20.31 17.9c2.865566-4.539585-3.179435-9.3615057-6.974199-5.593278-3.7947647 3.768227.984616 9.846917 5.544199 7.013278l3.12 3.07 1.39-1.39m-6.89-3c-2.227417 0-3.342508-2.692846-1.767677-4.267677s4.267677-.45974 4.267677 1.767677c0 1.380712-1.119288 2.5-2.5 2.5z" fill="#727cf0"/><path d="m19 6v-1c0-1.1045695-.895431-2-2-2h-2c-1.104569 0-2 .8954305-2 2v1h-2v-1c0-1.1045695-.895431-2-2-2h-2c-1.1045695 0-2 .8954305-2 2v1h-2v14h8.81c-5.8520405-6.125108 3.064892-15.0420405 9.19-9.19v-4.81" fill="#b27571"/></svg>