<svg height="24" viewBox="0 0 24 24" width="24" xmlns="http://www.w3.org/2000/svg"><path d="m18 14c-.13 0-.24.09-.26.21l-.19 1.32c-.3.13-.59.29-.85.47l-1.24-.5c-.11 0-.24 0-.31.13l-1 1.73c-.06.11-.04.24.06.32l1.06.82c-.02.17-.03.33-.03.5s.01.33.03.5l-1.06.82c-.09.08-.12.21-.06.32l1 1.73c.06.13.19.13.31.13l1.24-.5c.26.18.54.35.85.47l.19 1.32c.02.12.12.21.26.21h2c.11 0 .22-.09.24-.21l.19-1.32c.3-.13.57-.29.84-.47l1.23.5c.13 0 .26 0 .33-.13l1-1.73c.06-.11.03-.24-.06-.32l-1.07-.82c.02-.17.04-.33.04-.5s-.01-.33-.04-.5l1.06-.82c.09-.08.12-.21.06-.32l-1-1.73c-.06-.13-.19-.13-.32-.13l-1.23.5c-.27-.18-.54-.35-.85-.47l-.19-1.32c-.01-.12-.12-.21-.23-.21zm1 3.5c.83 0 1.5.67 1.5 1.5s-.67 1.5-1.5 1.5c-.84 0-1.5-.67-1.5-1.5s.67-1.5 1.5-1.5z" fill="#205d8c"/><path d="m6 2c-1.11 0-2 .89-2 2v16c0 1.104569.8954305 2 2 2h6.68c-.446302-.937211-.678577-1.96195-.68-3 0-3.865993 3.134007-7 7-7 .334818.0027.669009.02945 1 .08v-4.08l-6-6zm7 1.5 5.5 5.5h-5.5z" fill="#3ca9ff"/><path d="m10.432714 13.486249v.799996h-5.6000002v-.799996s0-1.599995 2.8-1.599995c2.8000002 0 2.8000002 1.599995 2.8000002 1.599995m-1.3999999-3.7999874a1.4 1.3999952 0 1 0 -1.4000003 1.3999954 1.4 1.3999952 0 0 0 1.4000003-1.3999954m1.3759999 2.1999924a2.128 2.1279927 0 0 1 .824 1.599995v.799996h1.6v-.799996s0-1.451996-2.424-1.599995m-.376-3.5999876a1.356 1.3559954 0 0 0 -.7719999.2359993 2 1.9999931 0 0 1 0 2.3279923 1.356 1.3559954 0 0 0 .7719999.235999 1.4000001 1.3999953 0 0 0 0-2.7999906z" fill="#205d8c" stroke-width=".399999"/></svg>