<svg height="24" viewBox="0 0 24 24" width="24" xmlns="http://www.w3.org/2000/svg"><path d="m20.14736 7.1346199c-.329198.3291983-.648714.6487144-.658396.9682304-.02905.3098337.300151.6293498.609985.9295012.464751.4841152.919819.9198189.900454 1.3942535-.01936.474433-.513162.96823-1.006959 1.452345l-3.998792 4.008474-1.374887-1.374887 4.114979-4.105297-.929501-.9295025-1.374887 1.3652065-3.630864-3.6308657 3.718004-3.7083224c.37761-.3776099 1.00696-.3776099 1.365205 0l2.265659 2.2656591c.37761.3582453.37761.987595 0 1.3652049m-17.14736 9.8856341 9.256283-9.2659666 3.630864 3.6308656-9.256283 9.265965h-3.630864z" fill="#333642" stroke-width=".96823"/></svg>