<svg height="24" viewBox="-690 -658 1415 1415" width="24" xmlns="http://www.w3.org/2000/svg"><path d="m-558.48724-104.76165c1.67017 3.34031 5.01052 5.010467 7.51577 7.515698 1.67017 2.505231 3.34034 5.84554 5.01051 9.185849s5.01051 5.84554 5.01051 9.185849c0 2.505231-4.17542 4.175386-5.01051 6.680617 0 1.670154 0 3.340308.83509 5.84554l2.50525 2.505231c3.34034 0 4.17543-3.340308 6.68068-5.010463h4.17543c1.67017.835078 1.67017 4.175386 3.34034 4.175386.83508.835077 2.50525-2.505231 4.17542-1.670154 1.67018 0 3.34035.835077 4.17543 2.505231 2.50526 3.340309 1.67017 7.515694 4.17543 10.856003 1.67017 2.505231 5.01051 3.340308 8.35085 4.175387 2.50525 0 5.84559-.835079 7.51576-2.505233 2.50526-2.505231 2.50526-5.84554 4.17543-7.515694s4.17543-.835077 5.8456-1.670154 3.34034-2.505232 5.84559-3.340309c.83509-.835077 3.34034-3.340308 4.17543-2.505231 2.50525 3.340308 1.67017 7.515694 1.67017 10.856003.83508 10.020926-2.50526 20.876929.83508 30.062777.83509 3.340309 5.8456 2.505232 9.18594 1.670155 3.34034-.835078 5.84559-4.175386 9.18594-4.175386 4.17542-.835077 8.35085 0 11.69119 0 5.01051.835077 10.8561.835077 15.86661.835077 5.8456.835077 11.6912 1.670154 17.53679 0 2.50526 0 5.01051-3.340308 5.8456-5.84554 1.67017-1.670154 0-5.010463 1.67017-6.680617.83508-.835077 4.17542-.835077 5.84559-.835077s2.50526 2.505231 3.34035 1.670154c3.34034-.835077 5.84559-3.340308 7.51576-5.010463 2.50526-2.505231 3.34034-6.680618 5.8456-8.350772 1.67017-.835077 3.34034 2.505231 4.17542 1.670154 2.50526-1.670154 3.34034-5.010462 5.01051-7.515694 2.50526-2.505231 5.8456-5.010463 8.35085-5.84554 4.17543-1.670154 9.18594-2.505231 13.36137-3.340308 2.50525 0 4.17542-.835077 6.68068-.835077 2.50525 0 5.01051.835077 7.51576.835077 1.67017 0 3.34034-1.670155 5.01052-1.670155.83508-.835077 2.50525-2.505231 3.34034-.835077 2.50525 2.505232 3.34034 7.515695 3.34034 10.856003 0 3.340309-3.34034 5.010463-3.34034 7.515694-.83509 3.34031 0 6.680618.83508 9.18585.83509 2.505231 3.34034 3.340308 4.17543 5.84554.83508 2.505231.83508 5.010462 0 7.515694-.83509 1.670154-4.17543.835077-4.17543 2.505231 0 3.340309 1.67017 5.84554 2.50526 8.350772 1.67017 3.340308 1.67017 6.680614 4.17542 10.0209242 2.50526 4.17539 5.8456 8.35077997 10.02102 10.856 3.34034 2.50524 7.51577 2.50524 10.85611 4.17539 1.67017 1.67016.83509 5.8455398 3.34034 7.5156898 2.50526 1.67016 5.8456 1.67016 8.35085.83508 3.34034 0 5.8456-.83508 8.35085-1.67015.83509 0 1.67017-1.67015 3.34034-1.67015 3.34034.83507 7.51577 3.3403 10.85611 5.01046 2.50526 1.67015 3.34034 5.01046 5.8456 6.68061 2.50525.83508 5.01051-.83508 6.68068.83508 3.34034.83508 5.01051 5.01047 8.35085 5.84554 2.50525 1.67015 5.84559 2.50524 8.35085 2.50524 1.67017.83507 4.17543-.83509 5.8456.83507 3.34034 2.50523 5.01051 7.5157 9.18593 10.02092 2.50526 1.67016 6.68068 2.50524 10.85611 1.67016 1.67017-.83508 1.67017-5.01047 4.17542-5.01047 3.34035-.83507 5.8456 1.67016 9.18594 2.50524 2.50526 1.67015 5.01051 3.34031 7.51577 5.01046 3.34034 1.67016 8.35085 2.50523 10.02102 5.84554 1.67017 2.50523-1.67017 6.68061-.83509 10.02093.83509 4.17538 4.17543 7.51569 5.8456 11.69108.83508 2.50523 0 6.68062 0 10.02092 0 .83508.83508 1.67016 0 2.50523-2.50526.83508-5.01051-.83507-6.68068 0-.83509.83508 0 3.34031.83508 4.17539.83509 1.67015 3.34034 2.50524 4.17543 5.01046 1.67017 3.340308 2.50525 7.515698 2.50525 11.691078.83509 3.34031 0 6.68062.83509 9.18585.83509 3.34031 3.34034 6.68062 5.8456 7.5157 6.68068 1.67015 14.19645 0 21.71222 0 6.68068.83507 13.36136.83507 20.04204.83507 1.67017.83508 5.8456-1.67015 5.8456.83508.83508 2.50523-4.17543 4.17539-5.01051 7.51569 0 2.50524 2.50525 4.17539 3.34034 5.84555 1.67017 3.34031 1.67017 7.51569 3.34034 10.02092s4.17542 3.34031 6.68068 5.01046c2.50526 2.50524 4.17543 5.01047 6.68068 7.5157 2.50526 2.50523 5.01051 5.84554 6.68068 9.18584 1.670165 3.34031 1.670165 6.68062 1.670165 10.85601 0 3.34031-.83508 6.68062-2.505245 10.02092-.83509 4.17539-3.34034 8.35077-5.01051 12.52616-.83509 5.01047-2.50526 9.18585-4.17543 13.36124-.83508 2.50523-3.34034 5.84554-2.50525 8.35077.83508 2.50523 4.17542 2.50523 5.84559 3.34031.83509 1.67015 1.67017 3.3403.83509 4.17539-.83509 1.67015-3.34034 0-5.01051 1.67015s-2.50526 5.01046-1.67017 7.51569c0 3.34031 2.50525 5.84554 3.34034 9.18585.83508 1.67015 1.67017 3.34031 2.50525 5.84554.83509 1.67016 2.50526 3.34031 2.50526 5.84554.83508 3.34031.83508 6.68061 0 10.856 0 1.67016-.83509 3.34031-1.67017 5.84554 0 1.67016.83508 4.17539.83508 5.84554 0 2.50524-1.67017 5.01047-1.67017 7.5157s0 5.84554 2.50526 7.51569c2.50525.83508 5.010505-2.50523 7.515755-2.50523 2.50526 0 5.8456.83508 9.18594.83508 2.50525.83508 5.845591 0 8.350851.83508 2.50526 0 4.17543 1.67015 5.8456 1.67015 1.67017.83507 4.17542 1.67016 5.84559 1.67016 1.67017-.83509 1.67017-5.84555 4.17543-5.01047 2.50525 0 2.50525 4.17538 5.01051 5.84554 3.34034 1.67015 8.35085 0 11.69119 1.67015 2.50526 2.50524 4.17543 7.5157 5.01051 10.85601 2.50526 6.68061 2.50526 12.52616 4.17543 19.20677.83508 3.34031.83508 8.35077 4.17542 10.85601 1.67017 1.67015 5.8456 1.67015 9.18594 2.50523 4.17542 0 8.35085-1.67016 11.69119-.83508s8.35085 2.50523 9.18594 5.84554c1.6701701 4.17539-3.34034 8.35077-3.34034 12.52616 0 3.34031 2.50525 5.84553 1.67017 9.18585 0 2.50523-2.50526 5.01046-2.50526 8.35077-.83508 1.67016 2.50526 2.50523 1.67017 4.17538-.83508 1.67016-3.34034.83508-4.17542 2.50524-.83509 1.67015-.83509 4.17538 0 6.68061 0 2.50523 0 5.01047 2.50525 5.84554 3.34034.83508 8.3508501-3.34031 11.6911901-1.67016 4.17543 2.50524 5.8455999 8.35078 7.5157699 12.52616 1.67017 2.50524 2.50526 5.84555 2.50526 8.35077-.83509 1.67016-3.34035 2.50524-3.34035 4.17539-.83508 2.50523.83509 5.01047.83509 8.35077 0 2.50523-.83509 5.01047-1.67017 7.5157-1.6701699 3.34031-2.5052599 5.84554-5.0105099 8.35077-1.67017 1.67016-3.34034 2.50523-5.84560004 3.34031-2.50525006.83507-5.84559006 0-9.18593006.83507-3.34034 1.67016-5.8456 5.01047-8.35086 6.68062-2.50525 1.67015-4.17542 4.17539-6.68068 5.84554-3.34034 2.50523-7.51576 4.17539-11.69119 6.68062-1.67017 1.67015-2.50525 4.17539-5.01051 6.68062-1.67017 2.50523-4.17542 5.01046-5.84559 7.51569-1.67017 1.67016-2.50526 3.34031-4.17543 5.01047-2.50526 2.50522-5.01051 3.3403-7.51577 5.01046-1.67017 2.50522-2.50525 5.84554-4.17542 7.5157-1.67017 2.50522-4.17543 3.3403-5.8456 5.84553-1.67017 2.50524-1.67017 6.68062-4.17542 9.18585-2.50526 2.50523-6.68068 1.67016-8.35086 4.17538-2.505251 1.67016-2.505251 5.01047-3.340341 7.5157-.83508 1.67016-2.50525 4.17539-.83508 5.01046 1.67017 1.67016 4.175421-1.67015 5.845601-.83507 1.67017 0 2.50525 2.50523 3.34034 2.50523 1.67017 0 2.50525-1.67016 3.34034-2.50523.83508-.83508.83508-2.50523 1.67017-3.34032 1.67017-.83507 4.17542-1.67015 5.84559-1.67015s1.67017 2.50524 3.34034 3.34032c.83509.83507 2.50526.83507 3.34034 1.67015 1.67017 1.67016.83509 4.17538 2.50526 5.84554 1.67017 1.67015 5.01051 1.67015 5.84559 2.50523 1.67018 1.67016 1.67018 4.17538 2.50526 5.84554.83509 2.50523 1.67017 5.01046 2.50526 5.84554.83508.83507 2.50525.83507 4.17542 0 .83509 0 2.50526-.83508 4.17543-1.67015.83508-.83509 1.67017-.83509 1.67017-1.67016.83508-.83508 0-2.50523 0-3.34031.83508-.83508 1.67017-.83508 2.50525-.83508 1.67017 0 5.01051 0 5.01051 1.67016.83509 1.67015-2.50525 3.3403-3.34034 5.01046 0 1.67015.83509 3.34031 1.67017 4.17539 2.50526 3.34031 5.8456 6.68061 10.02102 8.35077 2.50526 1.67015 6.68069 1.67015 9.18594 3.34031 2.50526 1.67015 5.01051 4.17539 6.68068 5.84554 1.67017 2.50523 2.5052601 5.01046 5.0105101 6.68062 2.50526 2.50522 6.68068 2.50522 9.1859399 5.84553 3.34034 2.50524 3.34034 7.5157 5.8456 10.85601 6.680676 9.18585 15.866613 4.17539 9.185932 15.03138 0 .83509-1.670171 1.67016-2.505256 2.50524-1.67017.83507-2.505255.83507-3.34034 1.67015-.835085 1.67016-1.67017 2.50523-1.67017 4.17538 0 1.67016-.835086 4.17539 0 6.68063 0 1.67015 1.67017 3.34031 2.505255 4.17538 1.67017.83508 2.505255.83508 4.175426 0 .835085 0 1.67017-1.67015 2.505255-2.50523 2.505255-.83508 5.010511-1.67015 6.680681-2.50523 2.505255-1.67016 5.845596-3.34031 7.515766-5.84555 1.670171-1.67015 1.670171-4.17538 1.670171-6.68061.835085-1.67016.835085-3.34031.835085-5.01046.835085-1.67016 1.67017-3.34031 1.67017-5.01047 1.67017-3.3403 4.175426-6.68061 4.175426-10.02092.835085-1.67016-1.670171-3.34031-1.670171-5.84555 0-1.67015 1.670171-2.50522 1.670171-3.3403.835085-2.50523.835085-5.01047 2.505255-7.51569 1.67017-3.34031 5.010511-7.5157 7.515766-10.85601 1.67017-1.67015 4.175426-1.67015 5.010512-2.50522 1.67017-.83509 2.505255-1.67016 3.34034-3.34032.835086-1.67016 0-4.17538.835086-6.68062.835085-2.50522 3.34034-4.17538 4.175425-6.68061.835085-1.67016 2.505256-2.50523 2.505256-5.01047 0-.83507-1.670171-1.67015-1.670171-2.50522-1.67017-1.67016-2.505255-3.34031-3.34034-5.84555 0-.83507-.835085-1.67015 0-2.50522 2.505255 0 5.010511 0 6.680681 1.67015 2.505255 2.50523 1.67017 5.84554 3.34034 8.35077 1.670171 1.67016 3.340341 2.50523 4.175426 2.50523 1.67017 0 .835085-1.67016.835085-2.50523.835085-.83508 0-3.34031.835085-2.50523 1.670171 0 1.670171 2.50523 3.340341 3.3403.835085 0 1.67017-2.50522 2.505255-1.67015.835085.83508.835085 2.50524 0 4.17539-.835085.83507-4.175425 0-5.01051 1.67015-.835086.83508.835085 3.34031 0 5.01047-.835086 1.67015-2.505256 2.50522-4.175426 5.01046-.835085.83507 0 2.50522-1.67017 3.34031-2.505256 1.67015-6.680681 0-8.350852 2.50523-1.67017 2.50523 1.670171 6.68062.835085 9.18584-.835085 1.67016-4.175425.83509-5.845596 1.67016-1.67017.83508-2.505255 2.50523-3.34034 3.34031-2.505256 2.50523-6.680682 4.17539-9.185937 6.68061-.835086 1.67016-.835086 4.17539 0 5.84555 1.67017 1.67015 5.01051 2.50522 6.680681.83507 1.67017 0 1.67017-3.34031 3.340341-5.01046 1.67017-1.67016 4.175426-3.34031 5.845596-5.01047 3.340341-1.67015 5.845596-3.3403 8.350851-5.84553 2.505256-1.67015 3.340341-4.17539 5.010511-5.84554 2.505256-2.50523 5.010511-2.50523 6.680681-4.17538 2.505256-3.34032 4.175426-6.68063 5.845596-10.85601 1.67017-1.67015 3.34034-4.17539 3.34034-6.68062 1.67017-3.3403 1.67017-6.68061 2.50526-10.02092 0-.83508-.83509-2.50524 0-3.34031.83508-1.67015 3.34034-1.67015 4.17542-3.34032.83509-.83507.83509-2.50522 1.67017-3.3403 1.67017-2.50523 4.17543-2.50523 5.01051-5.01047.83509-1.67015-1.67017-4.17538-1.67017-5.84553 0-.83508 0-2.50524.83509-2.50524 1.67017 0 3.34034 1.67016 5.84559 1.67016 1.67017-.83508 2.50526-3.34031 3.34034-4.17538 1.67017-2.50524 3.34034-4.17539 5.01051-5.84555 3.34034-1.67015 6.68069-1.67015 10.02103-3.34031 1.67017-1.67015 3.34034-4.17539 5.01051-6.68061.83508-1.67016 2.50525-3.34031 3.34034-5.01046.83508-3.34031 0-6.68062.83508-9.18586.83509-4.17538 3.34034-7.51568 3.34034-11.69107.83509-2.50524-1.67017-3.34031-1.67017-5.84555.83509-2.50522 4.17543-5.01046 4.17543-8.35077 0-1.67015-2.50526-3.34031-2.50526-5.01046-.83508-3.34031-.83508-6.68062-.83508-10.02092 0-3.34031 0-5.84555.83508-9.18586 0-4.17538.83509-7.51569 2.50526-11.69108.83508-2.50522 5.01051-3.3403 5.01051-6.68061 0-1.67016-3.34034-2.50523-5.01051-4.17538v-2.50524c.83508-.83507 1.67017-1.67015 2.50525-2.50523 3.34035 0 6.68069 5.84554 10.02103 5.01047 5.01051-.83508 4.17542-8.35078 6.68068-11.69109 3.34034-3.34031 6.68068-5.01046 10.8561-7.51569 4.17543-3.34031 9.18594-5.84554 14.19645-9.18585 2.50526-1.67015 5.01051-4.17538 7.51577-5.84553 1.67017-1.67016 3.34034-3.34032 5.84559-4.17539 2.50526-1.67016 5.8456-2.50524 9.18594-4.17539 2.50526-1.67016 5.01051-5.01047 8.35085-5.01047 3.34034-.83507 7.51577 1.67016 10.85611 1.67016s7.51577 0 10.02102-1.67016c3.34034-1.67015 4.17543-5.84553 6.68068-7.51569 2.50526-2.50523 6.68068-2.50523 9.18594-5.01046 1.67017-1.67015.83508-4.17539 2.50525-6.68061.83509-1.67017 1.67018-3.34032 3.34035-4.17539 2.50525 0 5.01051 1.67015 7.51576 2.50522 1.67017 0 4.17543 1.67017 6.68068 1.67017 1.67017 0 3.34034-3.34032 5.8456-4.17539 1.67017 0 4.17542 0 5.84559.83507 1.67017.83508 1.67017 3.34032 3.34035 5.01047.83508.83507 2.50525 1.67015 4.17542 1.67015 4.17543-.83508 9.18594-.83508 12.52628-3.3403 1.67017-.83509.83508-4.17539 2.50525-5.01048 1.67017 0 2.50526 3.34031 4.17543 4.17539 2.50525.83509 6.68068.83509 9.18594 1.67016 2.50525.83508 3.34034 4.17539 5.01051 3.34031 4.17542-.83508 8.35085-3.34031 10.8561-6.68062 1.67017-2.50524 0-6.68062 1.67017-8.35077 1.67017-2.50524 5.01051-2.50524 6.68068-4.17539 5.8456-2.50523 11.6912-4.17538 15.86662-8.35077 1.67017-.83507.83509-3.34031.83509-5.01046 0-1.67016-2.50526-1.67016-2.50526-2.50523 0-1.67016 1.67017-4.17539 3.34034-4.17539s3.34034 4.17539 4.17543 2.50523c1.67017-1.67016-.83509-5.01046 0-8.35077 0-.83507.83508-2.50523 1.67017-4.17538 2.50525-3.34031 5.01051-6.68062 8.35085-10.02093 2.50525-3.3403 6.68068-6.68061 9.18594-10.02093.83508-1.67016.83508-4.17538 2.50525-5.84554 3.34034-4.17539 7.51577-9.18585 10.85611-13.36123 4.17542-4.17539 8.35085-7.5157 10.8561-11.69109 2.50526-4.17538 2.50526-9.18584 3.34034-14.1963.83509-3.34031 0-7.5157.83509-11.69108.83509-4.17539 1.67017-8.35078 4.17543-11.69109 1.67017-5.01046 5.01051-9.18584 7.51576-13.36123 2.50526-2.50523 5.8456-5.01046 6.68068-8.35077 1.67017-3.34031 0-7.5157.83509-10.85601.83508-7.51568 3.34034-14.1963 5.84559-20.04184 1.67017-5.84555 5.01051-10.85601 6.68068-15.86647.83509-1.67016 2.50526-3.34031 2.50526-5.01046 0-3.34031-1.67017-5.84554-1.67017-9.18585 0-2.50523 2.50526-5.01046 2.50526-7.5157-.83509-4.17539-4.17543-7.51569-4.17543-11.69107 0-3.34031 1.67017-7.5157 3.34034-10.85601.83509-5.845528 4.17543-10.856008 4.17543-15.866468s-5.01051-8.35077-5.01051-13.36123c0-4.17538 3.34034-8.35077 5.01051-12.52616.83508-2.50523.83508-5.01046 1.67017-6.68062 1.67017-1.67015 5.01051-2.50522 5.01051-4.17538 0-2.50523-3.34034-4.17539-3.34034-6.68061 0-1.67016 2.50525-4.17539 4.17542-3.34031 3.34034 1.67015 1.67017 7.51569 5.01051 9.18584 2.50526 1.67015 6.68068-.83507 9.18594-2.50523 2.50525-1.67015 4.17543-5.01046 6.68068-6.68061 4.17543-4.17539 9.18594-5.84555 12.52628-10.02094 3.34034-3.3403 5.01051-8.35077 7.51576-12.52615v-.83508c0-2.50522.83509-5.8455298 1.67017-8.3507698.83509-2.50522 3.34034-5.01046 4.17543-8.35077.83508-1.67015-.83509-3.34031 0-4.17539 1.67017-.83507 3.34034 2.50524 4.17543 1.67016 2.50525-1.67016 2.50525-5.8455402 4.17542-8.3507702 2.50526-2.505233 5.8456-5.010464 9.18594-7.515696 5.01051-5.010463 10.02102-10.020925 15.86661-14.196311 2.50526-1.670154 5.01052-3.340309 7.51577-5.84554 1.67017-1.670154.83509-5.010463 2.50526-6.680617 1.67017-.835077 4.17542 0 5.84559-.835077 1.67017-1.670156 3.34034-3.34031 4.17543-5.845541.83508-.835077-.83509-3.340309 0-5.010463 3.34034-4.175386 8.35085-6.680617 11.69119-10.856003 3.34034-3.340308 6.68068-7.515694 8.35085-11.69108 3.34034-5.010462 4.17543-10.020926 6.68068-15.866466 2.50526-5.845538 5.8456-11.691078 7.51577-18.371698.83508-6.68062.83508-13.36123 0-19.20677 0-8.35077 0-15.86647-.83509-24.21724-.83508-4.17539-1.67017-9.18585-2.50525-14.19631-.83509-3.34031-.83509-6.68062-1.67017-10.85601-2.50526-6.68061-5.01051-13.36123-8.35085-19.20677-1.67017-2.50523-4.17543-4.17539-6.68068-5.01046-6.68069-2.50523-13.36137-3.34031-20.04205-4.17539-5.01051-.83508-10.02102 1.67016-15.03153.83508-5.8456-1.67016-10.85611-5.84554-15.86662-8.35078-5.84559-4.17539-10.02102-8.35077-15.03153-11.69107-5.8456-4.17539-10.85611-8.35077-15.86662-13.36124-5.01051-4.17539-9.18593-9.18585-14.19644-14.19631-4.17543-3.34031-8.35086-7.5157-13.36137-10.02093-5.01051-3.3403-11.69119-3.3403-17.53678-5.84554-3.34035-2.50523-6.68069-5.84553-10.85611-7.51569-5.01051-1.67015-10.02102-1.67015-15.03153-2.50523-5.01051 0-10.85611.83508-15.86662 1.67015-3.34034.83508-6.68068 4.17539-10.85611 4.17539-4.17542-.83508-7.51576-5.01046-11.69119-6.68062-2.50526-.83508-5.8456-2.50523-9.18594-2.50523-3.34034-.83508-7.51576 1.67015-10.8561.83507-1.67017-.83507-2.50526-4.17538-4.17543-4.17538-3.34034-1.67015-7.51576 0-10.85611-.83508-1.67017-.83507-1.67017-4.17538-3.34034-5.01046-4.17542-1.67016-9.18593-1.67016-13.36136-3.34031-.83508 0-1.67017-2.50523-3.34034-2.50523-1.67017.83507-.83508 5.01046-2.50525 5.84554-2.50526.83508-5.01051-.83508-6.68069-2.50523-1.67017-.83508-.83508-5.01046-2.50525-4.17539-2.50526 1.67015-1.67017 5.84554-3.34034 8.35077-1.67017.83508-3.34034.83508-5.01051 0-1.67017 0-3.34034-1.67015-4.17543-2.50523-1.67017-.83508-3.34034-1.67015-5.01051-.83508-1.67017 2.50524-1.67017 6.68062-2.50525 10.02093-1.67017 2.50523-2.50526 5.01047-5.01051 7.51569-1.67017 1.67016-5.01052 2.50524-6.68069 5.01047-1.67017 3.3403-.83508 14.19631-2.50525 10.856-1.67017-4.17539 0-9.18585 1.67017-13.36123 0-1.67015 1.67017-4.17539 2.50525-6.68062.83509-1.67016 0-3.34031.83509-5.01047.83509-2.50522 2.50526-5.01046 4.17543-7.51569.83508-1.67015 2.50525-3.3403 4.17542-5.01046.83509-.83508 3.34034-1.67015 3.34034-2.50523-.83508-1.67016-2.50525-3.34031-4.17542-3.34031-1.67017.83508-3.34034 5.01046-5.01051 3.34031-1.67017-.83508.83508-3.34031 1.67017-5.01047.83508-1.67015 3.34034-2.50522 3.34034-4.17538 0-2.50523-1.67017-4.17539-3.34034-5.84554-.83509-.83508-3.34034 0-4.17543-.83508-1.67017-2.50523-2.50526-5.84554-4.17543-7.51569-.83508-.83508-2.50525 0-3.34034-.83508-1.67017 0-2.50525-2.50523-4.17542-1.67016-2.50526 0-4.17543 1.67016-5.01051 4.17539-.83509 2.50523 3.34034 6.68062.83508 7.51569-3.34034.83508-5.01051-4.17538-5.84559-6.68061-.83509-2.50523 3.34034-4.17538 3.34034-6.68062-.83509-1.67015-2.50526-2.50523-5.01051-2.50523-.83509-.83508-.83509 1.67016-1.67017 1.67016-1.67017-.83508 0-4.17539-1.67017-4.17539-2.50526-.83507-5.01052 1.67015-7.51577 1.67015-2.50526 0-5.01051-3.34031-7.51577-3.34031-.83508 0-1.67017 3.34031-2.50525 2.50524-1.67017-1.67015 0-5.84554-1.67017-6.68062-2.50526-.83508-5.01051 4.17538-7.51577 3.34031-2.50525-.83508-2.50525-6.68062-5.84559-8.35077-4.17543-2.50524-8.35086-2.50524-13.36137-3.34032-4.17542-1.67015-8.35085-4.17538-12.52628-5.01046-1.67017 0 2.50526 4.17539.83509 3.34031-3.34034 0-6.68068-4.17538-10.02102-5.01046-2.50526 0-3.34034 3.3403-4.17543 3.3403-2.50525 1.67016-5.01051.83509-6.68068 2.50524-2.50525.83507-3.34034 3.34031-5.01051 5.01046-2.50526 2.50524-5.01051 5.01047-7.51577 7.5157-1.67017 1.67016-5.01051 3.34031-5.01051 5.01046 0 4.17538 7.51577 6.68062 5.01051 9.18585-1.67017 2.50523-5.84559-3.34031-8.35085-3.34031-3.34034.83508-5.01051 5.01046-7.51576 6.68061-1.67017.83509-2.50526 0-3.34034 0-3.34034 0-6.68069-.83507-10.02103.83509-3.34034.83507-5.84559 5.01046-9.18593 6.68061-2.50526.83508-5.01051 0-7.51577 0-3.34034 0-6.68068-2.50522-10.02102-1.67015-2.50526 1.67015-1.67017 8.35077-5.01051 7.5157-5.01051 0-5.8456-8.35077-10.02102-9.18586-2.50526-.83508-2.50526 5.84555-5.01051 6.68062-2.50526.83508-4.17543-2.50523-4.17543-5.01046.83509-2.50524 5.8456-2.50524 7.51577-5.84555.83508-2.50522.83508-6.68061 0-9.18584-.83509-2.50523-1.67017-5.84554-4.17543-5.84554-6.68068 0-12.526276 4.17539-19.206957 6.68061-5.845596 1.67016-12.526277 5.01047-18.371873 5.84555-4.175426.83507-8.350852 2.50522-11.691193 0-1.67017-.83508 2.505256-4.17539 4.175426-5.01046 4.175426-1.67016 10.021023.83507 14.196448-1.67016 3.340341-3.34031 3.340341-8.35077 5.010511-13.36123 0-.83508 0-2.50524.835085-3.34031 3.340341-5.84554 6.680681-12.52616 10.856107-17.53662 5.010511-6.68062 10.021021-11.69108 15.866616-17.53662 2.50526-2.50524 6.68068-4.17539 9.18594-7.5157 5.01051-4.17538 8.35085-9.18584 11.69119-14.19631 3.34034-4.17539 7.51577-9.18585 8.35085-15.03139 0-3.34031-2.50525-6.68062-5.01051-8.35077-5.01051-2.50523-10.85611.83508-15.03153-1.67016-3.34034-1.67015-4.17543-5.84553-5.01051-9.18584-.83509-1.67015.83508-3.34031.83508-5.84554-.83508-3.34031-2.50525-6.68062-4.17542-10.02093-2.50526-5.01046-5.01051-9.18585-6.680685-15.03138-.835085-5.01047-.835085-10.02094-1.67017-15.0314-.835085-3.34031 0-7.51569-1.67017-10.856-2.505255-5.01046-5.845596-12.52616-11.691192-13.36124-3.34034 0 4.175426 8.35078 2.505256 11.69109-1.670171 2.50523-4.175426-5.84555-6.680682-5.01046-5.845595 4.17538-9.185936 11.69108-13.361362 17.53661-4.175426 7.5157-8.350852 15.0314-12.526278 22.54708-1.67017 4.17539-3.34034 7.5157-5.01051 10.85601-1.670171 3.34031-1.670171 7.51569-4.175426 9.18585-3.340341 2.50523-8.350851 4.17538-12.526277 3.34031-4.175426-.83508-5.010511-5.84554-8.350851-6.68063-1.670171-.83507-3.340341 2.50524-5.010511 2.50524s-3.340336-3.34031-5.010506-3.34031c-5.0105199.83507-7.5157699 6.68062-11.6911999 6.68062-4.17542.83508-6.6806801-3.34031-10.8561001-5.01046-.83509 0-2.50526 2.50523-3.34034 1.67015-4.17543-2.50524-6.68069-10.02092-11.6912-10.02092-6.68068-.83509-13.36136 6.68061-20.04204 7.51568-3.34034 0-5.84559-5.84553-8.35085-5.01046-4.17543.83508-7.51577 4.17539-8.35085 8.35078 0 4.17538 5.84559 7.51569 5.84559 11.69108 0 1.67015-3.34034 3.34031-5.01051 2.50523-4.17542-1.67016-6.68068-7.51569-10.8561-8.35077-1.67017-.83508 1.67017 4.17539 0 5.84554s-5.8456 3.34031-9.18594 3.34031c-2.50526 0-5.010511-3.34031-8.350851-3.34031-4.17543-.83508-10.02102-1.67015-14.196445.83507-1.67017.83508 2.505255 5.01046 0 5.84555-4.17542 2.50522-10.8561 0-15.86662 1.67015-1.67017 0 1.67017 3.34031 0 4.17538-2.50525.83508-5.01051-2.50522-6.68068-1.67015-5.01051 2.50523-5.84559 9.18585-10.8561 10.856-3.34034 1.67016-8.35085-.83507-11.6912-2.50522-5.01051-2.50524-10.02103-5.84555-13.36137-10.02094-2.50525-2.50522-3.34034-5.84553-4.17542-9.18584 0-3.34031 3.34034-6.68062 2.50525-10.02092-.83508-2.50524-5.84559-3.34032-6.68068-5.84555-1.67017-4.17539-2.50525-10.02092-2.50525-14.19631.83508-2.50523 4.17542-3.34031 5.01051-5.01046 1.67017-2.50523-.83509-5.01047.83508-7.51569 2.50526-3.34032 8.35085-3.34032 9.18595-6.68063 1.67017-5.01046-1.67018-9.18584-2.50527-14.1963-.83508-3.34031-2.50525-6.68062-3.34034-9.18586-1.67017-1.67015-2.50525-4.17539-4.17542-5.01046-1.67017-.83508-5.01051.83507-6.68068-.83508-3.34035-3.34031-5.01052-7.51569-5.01052-11.69108-.83508-3.34031 3.34035-5.84553 2.50526-9.18584-.83509-1.67015-4.17543-3.34031-6.68068-3.34031-2.50526.83507-3.34034 4.17538-5.8456 5.84554-1.67017.83508-3.34034.83508-5.01051 0-2.50525-.83508-4.17542-5.84554-5.01051-4.17538-1.67017 2.50522 2.50526 5.01046 2.50526 7.51568.83508 2.50524.83508 5.01047-.83509 6.68062-2.50525 3.34031-5.84559 5.84554-10.02102 7.5157-4.17543 2.50522-10.02102 2.50522-14.19645 5.01046-2.50525 1.67015-2.50525 5.84555-5.01051 7.5157-3.34034 1.67015-8.35085 1.67015-11.69119 2.50523-5.01051.83508-9.18594-1.67016-13.36136 0-4.17543 1.67015-7.51577 4.17539-10.02102 7.51569-.83509 2.50523 1.67017 5.01047.83508 7.51569-.83508 1.67016-3.34034.83508-4.17542 0-2.50526-1.67015-3.34034-5.84553-5.8456-6.68061-2.50526-1.67016-5.8456 0-8.35085-.83508-5.01051-.83508-10.02102-2.50523-14.19645-5.01046-3.34034-1.67015-4.17542-8.35077-8.35085-8.35077s-8.35085 5.01046-10.85611 9.18584c-1.67017 2.50524-.83508 7.5157 1.67017 9.18586 3.34034 2.50522 9.18594-1.67016 12.52628 1.67015 2.50526 1.67015 1.67017 5.84554.83509 9.18585-.83509 2.50523-2.50526 4.17538-4.17543 6.68062-.83508 2.50522-2.50526 5.01046-2.50526 8.35077 0 4.17538.83509 7.51569 1.67018 11.69108.83508 2.50523 1.67017 4.17539 3.34034 5.84554.83508 1.67015 3.34034 1.67015 5.01051 1.67015 1.67017.83508 4.17542 3.34031 6.68068 2.50523 1.67017 0 3.34034-3.34031 5.01051-3.34031 3.34034.83508 7.51576 5.01046 5.01051 6.68062-4.17543 4.17539-11.69119 0-15.86662 4.17539-5.84559 4.17538-4.17542 15.03139-10.02102 19.20678-2.50526 2.50522-2.50526-6.68063-5.8456-6.68063s-4.17542 5.84554-6.68068 8.35078c-5.84559 5.01046-11.69119 8.35077-16.7017 12.52615-2.50525 2.50524-3.34034 9.18585-6.68068 8.35077-4.17543 0-1.67017-7.51569-5.01051-10.02092-2.50526-1.67016-5.8456-2.50523-8.35085 0-2.50526 2.50523 0 10.856-4.17543 10.856-5.84559.83507-9.18593-5.84554-14.19645-9.18585-4.17542-2.50523-9.18593-4.17538-11.69119-8.35077-1.67017-1.67015.83509-5.01046 0-7.51569-3.34034-6.68062-5.84559-15.86647-12.52627-18.3717-5.01052-1.67016-5.8456 10.02092-10.85611 10.856-3.34034.83508-4.17543-5.84554-7.51577-7.5157-2.50525-.83507-5.84559-.83507-6.68068 1.67016-.83508 2.50524 5.8456 7.5157 2.50526 8.35077-10.85611 4.17539-22.5473 1.67015-34.23849 1.67015-4.17543 0-10.85611-3.3403-12.52628.83509-2.50526 6.68061-.83509 15.03138 2.50526 22.54708.83508 2.50523 5.84559 0 8.35085 0 2.50525-.83508 5.01051-2.50524 6.68068-.83508 2.50525 1.67015 1.67017 5.84554 1.67017 8.35077-.83509 2.50523-2.50526 5.84554-5.01051 5.84554-2.50526 0-4.17543-5.84554-7.51577-5.84554-4.17542.83508-10.02102 3.34032-11.69119 7.5157-2.50526 6.68061-.83509 14.19631 0 20.87693.83508 2.50522 2.50525 4.17538 5.01051 6.68061 1.67017.83508 5.01051.83508 5.8456 3.34031 2.50525 2.50524 1.67017 5.84555 3.34034 9.18585.83508 2.50523 3.34034 4.17538 3.34034 6.68062 0 4.17538-2.50526 7.51569-2.50526 11.69108 0 3.34031 1.67017 7.5157.83509 10.856-2.50526 18.3717-5.8456 37.57847-10.02103 55.95017-1.67017 7.5157-1.67017 16.70154-6.68068 21.712-2.50525 2.50524-6.68068-6.68061-10.02102-5.84553-5.01051.83507-6.68068 7.51569-11.69119 8.35077-2.50526.83507-5.01051-4.17539-7.51577-3.34031-2.50525 0-3.34034 3.34031-5.84559 4.17538-2.50526 1.67015-5.8456-.83507-8.35085 0-5.01051 2.50524-8.35085 6.68063-12.52628 10.02093-4.17543 3.34031-9.18594 5.01047-12.52628 9.18585-4.17542 4.17539-6.68068 10.02093-8.35085 15.03139-1.67017 4.17539-2.50525 8.35077-3.34034 12.52616 0 3.34031.83509 6.68061 0 10.02092-.83508 4.17539-.83508 9.18585-4.17542 12.52616-1.67017 3.34031-7.51577 1.67016-9.18594 5.01046-2.50526 4.17539-1.67017 9.18585-1.67017 13.36124 0 2.50523 1.67017 5.84554 0 7.51569-1.67017 2.50523-5.8456.83508-6.68068 3.34031-.83509 1.67016.83508 4.17539 1.67017 5.84554 1.67017 1.67016 4.17542 1.67016 5.84559 3.34031s.83509 5.01046 1.67017 6.68062c.83509 2.50523 1.67017 5.01046 3.34034 6.68061zm643.015563-244.6776c2.505256-4.17539 5.010511-9.18585 8.350851-13.36124 2.505256-2.50523 6.680681-10.02093 9.185936-7.51569 3.34034 4.17538-.83508 10.856-2.505255 15.03139-1.67017 5.01046-5.01051 10.02092-9.185936 13.36123-3.34034 3.34031-9.185936 11.69108-12.526277 7.5157-4.175426-4.17539 4.175426-10.02093 6.680681-15.03139zm27.557807-11.69109c-.83508 3.34031 2.50526 6.68062 2.50526 10.02093-.83509 3.34031-5.01051 5.01047-5.01051 7.5157-.83509 4.17539 0 9.18585 2.50525 12.52616 1.67017 1.67015 5.8456 0 7.51577 1.67015s-1.67017 5.01046 0 5.84553c4.17542 1.67016 8.35085 0 11.69119.83509 2.50526 0 4.17543 2.50522 6.68068 1.67015 1.67017 0 .83509-3.34031 2.50526-5.01046 3.34034-1.67016 6.68068-.83508 9.18593-2.50524 3.34034-.83507 5.01051-4.17538 8.35086-4.17538 1.67017 0 2.50525 3.34031 5.01051 3.34031 1.67017 0 4.17542-1.67015 5.01051-4.17539 0-2.50523-4.17543-6.68062-2.50526-9.18584 2.50526-4.17539 9.18594-4.17539 12.52628-8.35078 3.34034-4.17538 10.85611-10.02093 7.51576-15.03139-4.17542-5.84553-15.03153-7.51569-21.71221-4.17538-5.01051 3.34031 0 13.36123-4.17542 18.37169-1.67017 2.50524-3.34035-5.84554-3.34035-9.18585 0-1.67015 4.17543-.83507 4.17543-2.50522 0-2.50524-1.67017-5.01047-3.34034-5.84555-5.8456-2.50522-11.69119-1.67015-17.53679-1.67015-5.01051-.83507-10.85611-.83507-15.86662 0-2.50525.83508-4.17542 3.34031-6.68068 5.01046-1.67017 1.67015-5.01051 2.50524-5.01051 5.01046zm15.86662-15.03138c5.01051-.83508 10.02102.83508 13.36136-1.67016 2.50526-1.67015 5.01051-6.68061 3.34034-8.35077-4.17542-3.34031-10.8561.83507-15.03153-1.67015-1.67017-1.67016 5.01051-7.5157 2.50526-7.5157-5.01052 0-9.18594 3.34031-12.52628 6.68062-2.50526 1.67015-5.01051 4.17539-5.01051 7.51569-.83509 2.50524 0 5.84555 2.50525 6.68062 1.67017.83508 1.67017-3.34031 2.50526-5.01046 1.67017-1.67016 1.67017-4.17539 4.17542-5.01046.83509-.83509 3.34034.83507 2.50526 2.50523 0 2.50523-5.01051 4.17538-4.17543 5.84554 0 2.50523 4.17543 0 5.8456 0zm-22.5473-.83508c-3.34034.83508-1.67017 8.35077 0 10.856 1.67017 2.50524 6.68068.83508 6.68068-.83507 0-4.17539-2.50525-10.85601-6.68068-10.02093z" fill="#008000" fill-opacity=".941176" stroke="#000" stroke-width="1.670162"/></svg>