<svg height="24" viewBox="0 0 24 24" width="24" xmlns="http://www.w3.org/2000/svg"><path d="m20.469 11.622-8.1-8.1c-.333-.333-.792-.522-1.269-.522h-6.3a1.8 1.8 0 0 0 -1.8 1.8v6.3c0 .477.189.936.531 1.269l.369.36c.81-.486 1.746-.729 2.7-.729a5.4 5.4 0 0 1 5.4 5.4c0 .954-.252 1.881-.738 2.7l.36.36c.333.342.801.54 1.278.54s.936-.189 1.269-.531l6.3-6.3c.342-.333.531-.792.531-1.269s-.189-.936-.531-1.278m-14.319-4.122a1.35 1.35 0 0 1 -1.35-1.35 1.35 1.35 0 0 1 1.35-1.35 1.35 1.35 0 0 1 1.35 1.35 1.35 1.35 0 0 1 -1.35 1.35m4.05 10.8h-7.2v-1.8h7.2z" fill="#747ba4" fill-opacity=".941176" stroke-width=".9"/></svg>