<svg height="24" viewBox="0 0 24 24" width="24" xmlns="http://www.w3.org/2000/svg"><g fill="#fff" transform="translate(0 .033898)"><path d="m20.799999 20.966102h-17.5999979c-1.215027 0-2.2000011-1.004165-2.2000011-2.242866v-13.514267c0-1.2387013.9849741-2.242867 2.2000011-2.242867h17.5999979c1.215027 0 2.200001 1.0041657 2.200001 2.242867v13.514267c0 1.238701-.984974 2.242866-2.200001 2.242866m-17.7438163-15.9721766v13.9801936h17.9235893v-13.9801936z" stroke-width="1.110666"/><path d="m6.0287343 15v-4.993484h-1.0287343v-.9933333h2.6323833v5.9868173zm8.9612767-4.970745v-1.0292886h3.980763v5.9868176h-3.980763v-1.029287h3.0234v-1.215766h-2.030619v-1.532667h2.030619v-1.179809zm-2.479715-1.0226806c.574303 0 1.039865.5025685 1.039865 1.1225206 0 .299342-.11092.583717-.291163.778289l-2.315431 3.092676h2.606594v.993332h-3.9805725v-1.37696l2.5940855-3.580569h-2.5940855v-1.0292886z" stroke-width="1.440536"/></g></svg>