<svg height="24" viewBox="0 0 24 24" width="24" xmlns="http://www.w3.org/2000/svg">
  <path
    d="m18.4 4.8h-3.762c-.378-1.044-1.368-1.8-2.538-1.8s-2.16.756-2.538 1.8h-3.762c-.99 0-1.8.81-1.8 1.8v12.6c0 .99.81 1.8 1.8 1.8h12.6c.99 0 1.8-.81 1.8-1.8v-12.6c0-.99-.81-1.8-1.8-1.8m-10.8 4.5h1.8v3.6h-.9v-2.7h-.9zm2.7 8.1v.9h-2.7v-.828l1.8-1.872h-1.8v-.9h2.025c.369 0 .675.306.675.675 0 .18-.072.351-.189.468l-1.503 1.557zm.9-11.7c0-.495.405-.9.9-.9s.9.405.9.9-.405.9-.9.9-.9-.405-.9-.9m5.4 11.7h-4.5v-1.8h4.5zm0-5.4h-4.5v-1.8h4.5z"
    fill="#c87137" stroke-width=".9"/>
</svg>