<svg height="24" viewBox="0 0 24 24" width="24" xmlns="http://www.w3.org/2000/svg"><path d="m12.654275 17.616168c-3.584718 0-6.4907062-2.772673-6.4907062-6.192938 0-1.032157.2704461-2.0333467.757249-2.8900365l-1.5794052-1.5069483c-.8437918 1.2695523-1.3414126 2.7765003-1.3414126 4.3969848 0 4.560354 3.8746509 8.257251 8.654275 8.257251v3.096469l4.327138-4.128626-4.327138-4.128625" fill="#007300" stroke-width="1.05668"/><path d="m12.327 4.2749657v-3.0965269l-4.327 4.1287025 4.327 4.1287025v-3.0965269c3.584604 0 6.4905 2.7727246 6.4905 6.1930551 0 1.032175-.270437 2.033386-.757225 2.890092l1.579355 1.506976c.843765-1.269576 1.34137-2.776552 1.34137-4.397068 0-4.5604402-3.874528-8.2574063-8.654-8.2574063z" fill="#4a8dac" stroke-width="1.05667"/></svg>