<svg height="24" viewBox="0 0 24 24" width="24" xmlns="http://www.w3.org/2000/svg"><path d="m6 2h8l6 6v4.17c-.5-.11-1-.17-1.5-.17-3.59 0-6.5 2.91-6.5 6.5 0 1.29.37 2.5 1 3.5h-7c-1.12 0-2-.9-2-2v-16c0-1.11.89-2 2-2z" fill="#1fb58f"/><path d="m17.11642 21.42375-2.933335-3.2 1.237335-1.23733 1.696 1.68533 3.818665-3.818665 1.248 1.504z" fill="#1abe1d" stroke-width="1.06665"/><path d="m6 3.8v9.999954h1.9999953v-3.9999902h2a1.9999934 1.9999938 0 0 0 2.0000047-1.999997v-1.999987a1.9999934 1.9999938 0 0 0 -2.0000047-1.9999798zm1.9999953 1.9999798h2v1.999987h-2z" fill="#0ff" stroke-width=".999992"/></svg>