<svg height="24" viewBox="0 0 24 24" width="24" xmlns="http://www.w3.org/2000/svg">
  <g fill="#ed1c24">
    <path
        d="m16.1356 1h-7.135601c-1.1045692 0-1.9812808.8955891-1.9999997 2v3h1.9999997v-2h11.050855v16h-11.050855v-2h-1.9999997v3c0 1.104569.8954305 2 1.9999997 2h11.050855c1.104569 0 2-.895431 2-2v-18c0-1.1045695-.895431-2-2-2m-12.0474649 10v-1.5c0-1.4-1.4-2.5-2.8-2.5s-2.8 1.1-2.8 2.5v1.5c-.6 0-1.2.6-1.2 1.2v3.5c0 .7.6 1.3 1.2 1.3h5.5c.7 0 1.2999999-.6 1.2999999-1.2v-3.5c0-.7-.5999999-1.3-1.1999999-1.3m-1.3 0h-3v-1.5c0-.8.7-1.3 1.5-1.3s1.5271031.5004592 1.5 1.3z"/>
    <path d="m15.033897 15.90678h2.813558v-7.864407h-2.813558m-.932203 0h-3.016949v7.864407h3.016949z"/>
  </g>
</svg>