<?xml version="1.0" standalone="no"?>
<!DOCTYPE svg PUBLIC "-//W3C//DTD SVG 20010904//EN"
 "http://www.w3.org/TR/2001/REC-SVG-20010904/DTD/svg10.dtd">
<svg version="1.0" xmlns="http://www.w3.org/2000/svg"
 width="700.000000pt" height="700.000000pt" viewBox="0 0 700.000000 700.000000"
 preserveAspectRatio="xMidYMid meet">
<metadata>
Created by potrace 1.11, written by Peter Selinger 2001-2013
</metadata>
<g transform="translate(0.000000,700.000000) scale(0.100000,-0.100000)"
fill="#000000" stroke="none">
<path d="M5445 5919 c-161 -16 -294 -105 -368 -248 -165 -318 81 -693 438
-668 88 7 144 24 206 62 168 107 250 290 214 480 -43 232 -260 398 -490 374z"/>
<path d="M6115 4348 c-1 -871 3 -1585 6 -1588 4 -3 193 -5 421 -5 l413 0 2
1588 3 1587 -423 0 -422 0 0 -1582z"/>
<path d="M3475 4792 c-482 -46 -873 -308 -1101 -737 -74 -139 -153 -359 -180
-498 -2 -12 -6 -33 -9 -47 -24 -123 -30 -205 -30 -415 0 -226 6 -294 40 -460
59 -285 198 -551 385 -736 126 -124 278 -224 430 -283 41 -15 84 -32 95 -36
22 -8 98 -30 124 -35 214 -41 298 -49 486 -49 117 1 300 11 343 19 9 1 44 6
77 10 129 14 340 64 460 108 44 16 88 31 98 34 25 8 25 7 -42 320 -48 223 -49
232 -50 257 -1 13 -6 16 -18 11 -27 -11 -211 -63 -241 -69 -15 -2 -52 -10 -82
-16 -30 -6 -73 -13 -95 -16 -22 -3 -51 -8 -65 -11 -14 -3 -115 -7 -225 -9
-146 -2 -220 1 -275 12 -390 75 -612 315 -644 696 l-4 44 932 0 c512 -1 939 1
948 3 31 6 40 81 40 326 0 208 -9 308 -48 535 -25 146 -130 405 -214 531 -142
212 -282 325 -545 440 -34 15 -167 48 -240 60 -67 10 -286 18 -350 11z m196
-597 c120 -28 178 -66 278 -181 35 -40 89 -164 112 -253 23 -93 39 -279 24
-284 -5 -2 -262 -3 -570 -3 l-560 1 3 40 c9 144 78 338 162 460 33 48 111 125
161 158 99 67 262 93 390 62z"/>
<path d="M1025 4726 c-284 -40 -517 -151 -690 -330 -134 -139 -210 -292 -250
-501 -11 -57 -13 -231 -3 -285 40 -226 162 -406 383 -569 131 -96 217 -144
411 -226 247 -105 379 -198 431 -303 24 -49 28 -69 27 -142 0 -96 -21 -153
-76 -209 -28 -28 -92 -69 -123 -78 -246 -69 -568 -22 -879 126 -56 27 -100 43
-102 37 -2 -6 -24 -90 -49 -186 -25 -96 -59 -226 -75 -288 -17 -63 -27 -118
-24 -124 10 -15 156 -81 249 -111 74 -25 186 -53 245 -63 14 -2 34 -6 45 -9
11 -2 47 -7 80 -10 33 -3 78 -8 100 -10 91 -11 354 -5 440 10 17 2 48 7 70 10
22 4 83 17 135 31 375 97 633 325 729 647 31 102 36 148 36 317 -1 165 -8 208
-62 340 -62 152 -199 313 -358 420 -91 61 -257 148 -390 205 -253 106 -383
195 -430 290 -27 56 -28 164 -3 226 52 124 191 194 383 193 165 -2 362 -52
524 -134 44 -22 63 -27 65 -18 25 78 145 522 152 559 5 25 0 29 -83 64 -96 40
-299 99 -378 109 -27 4 -66 9 -85 12 -81 12 -360 11 -445 0z"/>
<path d="M5064 3143 l1 -1588 420 0 420 0 1 1588 1 1587 -422 0 -422 0 1
-1587z"/>
<path d="M6427 2465 c-137 -38 -254 -135 -310 -259 -121 -264 41 -581 327
-641 276 -57 536 146 551 430 14 256 -183 471 -440 480 -45 2 -101 -3 -128
-10z"/>
</g>
</svg>
