<svg height="24" viewBox="0 0 24 24" width="24" xmlns="http://www.w3.org/2000/svg"><path d="m17.7 4.8705882-1.8125 1.7058824c2.1625 1.2352941 3.6125 3.4588234 3.6125 6.0117654a7.5 7.0588236 0 0 1 -7.5 7.058823 7.5 7.0588236 0 0 1 -7.5-7.058823c0-2.552942 1.45-4.7764713 3.6-6.0235301l-1.8-1.6941177c-2.6 1.6941177-4.3 4.5176474-4.3 7.7176478a10 9.4117647 0 0 0 10 9.411764 10 9.4117647 0 0 0 10-9.411764c0-3.2000004-1.7-6.0235301-4.3-7.7176478m-4.45-2.8705882h-2.5v11.764706h2.5" fill="#fff" stroke-width="1.212678"/></svg>